<?xml version="1.0" encoding="UTF-8" standalone="no"?>
<!-- Generator: Adobe Illustrator 18.0.0, SVG Export Plug-In . SVG Version: 6.00 Build 0)  -->

<svg
   xmlns:dc="http://purl.org/dc/elements/1.1/"
   xmlns:cc="http://creativecommons.org/ns#"
   xmlns:rdf="http://www.w3.org/1999/02/22-rdf-syntax-ns#"
   xmlns:svg="http://www.w3.org/2000/svg"
   xmlns="http://www.w3.org/2000/svg"
   xmlns:sodipodi="http://sodipodi.sourceforge.net/DTD/sodipodi-0.dtd"
   xmlns:inkscape="http://www.inkscape.org/namespaces/inkscape"
   version="1.1"
   id="Capa_1"
   x="0px"
   y="0px"
   viewBox="0 0 128 128"
   xml:space="preserve"
   sodipodi:docname="anonymous-svgrepo-com.svg"
   width="128"
   height="128"
   inkscape:version="0.92.4 (5da689c313, 2019-01-14)"><metadata
   id="metadata55"><rdf:RDF><cc:Work
       rdf:about=""><dc:format>image/svg+xml</dc:format><dc:type
         rdf:resource="http://purl.org/dc/dcmitype/StillImage" /><dc:title></dc:title></cc:Work></rdf:RDF></metadata><defs
   id="defs53" /><sodipodi:namedview
   pagecolor="#ffffff"
   bordercolor="#666666"
   borderopacity="1"
   objecttolerance="10"
   gridtolerance="10"
   guidetolerance="10"
   inkscape:pageopacity="0"
   inkscape:pageshadow="2"
   inkscape:window-width="1920"
   inkscape:window-height="1017"
   id="namedview51"
   showgrid="false"
   inkscape:zoom="1.1456311"
   inkscape:cx="103"
   inkscape:cy="103"
   inkscape:window-x="1912"
   inkscape:window-y="-8"
   inkscape:window-maximized="1"
   inkscape:current-layer="Capa_1" />
<g
   id="g18"
   transform="matrix(0.46601942,0,0,0.46601942,16,16)">
	<path
   d="m 200.663,23.767 c -1.125,-1.125 -2.651,-1.758 -4.243,-1.758 -0.02,-0.001 -0.04,0 -0.06,0 -4.237,0 -8.227,-1.651 -11.234,-4.652 -3.037,-3.03 -4.708,-7.062 -4.707,-11.354 C 180.42,4.411 179.787,2.885 178.662,1.759 177.537,0.632 176.011,0 174.419,0 H 31.581 c -1.592,0 -3.118,0.632 -4.243,1.758 -1.125,1.126 -1.758,2.652 -1.757,4.244 0.001,4.292 -1.67,8.325 -4.707,11.354 -3.009,3.001 -6.996,4.652 -11.234,4.652 -0.02,0 -0.04,-10e-4 -0.06,0 -1.592,0 -3.118,0.632 -4.243,1.758 -1.129,1.13 -1.762,2.663 -1.757,4.26 0.06,20.19 2.938,51.081 16.305,83.586 16.012,38.936 42.908,70.387 79.94,93.479 0.972,0.606 2.073,0.909 3.175,0.909 1.102,0 2.203,-0.303 3.175,-0.909 37.032,-23.092 63.929,-54.542 79.94,-93.479 13.367,-32.505 16.245,-63.396 16.305,-83.586 0.005,-1.597 -0.628,-3.13 -1.757,-4.259 z M 103,192.891 C 30.521,145.934 16.802,75.074 15.661,33.36 c 5.143,-1.127 9.867,-3.697 13.688,-7.509 3.865,-3.856 6.465,-8.64 7.594,-13.852 h 132.113 c 1.129,5.212 3.729,9.996 7.594,13.852 3.821,3.813 8.546,6.382 13.688,7.509 -1.14,41.714 -14.859,112.574 -87.338,159.531 z"
   id="path2"
   inkscape:connector-curvature="0" />
	<path
   d="m 155.924,99.253 c -2.903,-1.597 -6.553,-0.537 -8.148,2.366 l -5.217,9.483 h -16.362 l -5.866,-9.697 c -1.087,-1.797 -3.034,-2.895 -5.134,-2.895 H 90.804 c -2.1,0 -4.047,1.098 -5.134,2.895 l -5.866,9.697 H 63.441 l -5.217,-9.483 c -1.596,-2.903 -5.244,-3.963 -8.148,-2.366 -2.903,1.597 -3.963,5.246 -2.365,8.149 l 6.926,12.591 c 1.054,1.917 3.068,3.108 5.257,3.108 h 23.293 c 2.1,0 4.047,-1.098 5.134,-2.895 l 5.866,-9.697 h 17.627 l 5.866,9.697 c 1.087,1.797 3.034,2.895 5.134,2.895 h 23.293 c 2.188,0 4.203,-1.191 5.257,-3.108 l 6.926,-12.591 c 1.597,-2.903 0.537,-6.551 -2.366,-8.149 z"
   id="path4"
   inkscape:connector-curvature="0" />
	<polygon
   points="114.647,132.805 91.353,132.805 103,173.097 "
   id="polygon6" />
	<path
   d="m 64.834,46.007 c 8.584,0 16.593,4.622 20.9,12.061 1.66,2.867 5.333,3.845 8.199,2.186 2.867,-1.661 3.846,-5.332 2.186,-8.199 C 89.672,40.923 77.684,34.008 64.834,34.008 c -12.855,0 -24.846,6.918 -31.29,18.055 -1.659,2.868 -0.68,6.539 2.188,8.199 0.946,0.547 1.979,0.808 2.999,0.808 2.071,0 4.087,-1.074 5.199,-2.996 4.307,-7.444 12.317,-12.067 20.904,-12.067 z"
   id="path8"
   inkscape:connector-curvature="0" />
	<path
   d="m 57.395,55.071 c -2.209,0 -4,1.791 -4,4 0,2.209 1.791,4 4,4 h 15.859 c 2.209,0 4,-1.791 4,-4 0,-2.209 -1.791,-4 -4,-4 z"
   id="path10"
   inkscape:connector-curvature="0" />
	<path
   d="m 141.17,34.007 c -12.854,0 -24.844,6.918 -31.29,18.055 -1.659,2.868 -0.68,6.539 2.188,8.198 0.946,0.548 1.98,0.808 3,0.808 2.071,0 4.087,-1.074 5.199,-2.996 4.308,-7.442 12.317,-12.066 20.903,-12.066 8.584,0 16.593,4.621 20.9,12.06 1.659,2.867 5.33,3.847 8.199,2.186 2.867,-1.661 3.846,-5.331 2.186,-8.199 C 166.01,40.922 154.021,34.007 141.17,34.007 Z"
   id="path12"
   inkscape:connector-curvature="0" />
	<path
   d="m 149.591,63.071 c 2.209,0 4,-1.791 4,-4 0,-2.209 -1.791,-4 -4,-4 h -15.86 c -2.209,0 -4,1.791 -4,4 0,2.209 1.791,4 4,4 z"
   id="path14"
   inkscape:connector-curvature="0" />
	<path
   d="m 109.157,125.667 c 2.209,0 4,-1.791 4,-4 0,-2.209 -1.791,-4 -4,-4 H 96.843 c -2.209,0 -4,1.791 -4,4 0,2.209 1.791,4 4,4 z"
   id="path16"
   inkscape:connector-curvature="0" />
</g>
<g
   id="g20"
   transform="translate(0,-78)">
</g>
<g
   id="g22"
   transform="translate(0,-78)">
</g>
<g
   id="g24"
   transform="translate(0,-78)">
</g>
<g
   id="g26"
   transform="translate(0,-78)">
</g>
<g
   id="g28"
   transform="translate(0,-78)">
</g>
<g
   id="g30"
   transform="translate(0,-78)">
</g>
<g
   id="g32"
   transform="translate(0,-78)">
</g>
<g
   id="g34"
   transform="translate(0,-78)">
</g>
<g
   id="g36"
   transform="translate(0,-78)">
</g>
<g
   id="g38"
   transform="translate(0,-78)">
</g>
<g
   id="g40"
   transform="translate(0,-78)">
</g>
<g
   id="g42"
   transform="translate(0,-78)">
</g>
<g
   id="g44"
   transform="translate(0,-78)">
</g>
<g
   id="g46"
   transform="translate(0,-78)">
</g>
<g
   id="g48"
   transform="translate(0,-78)">
</g>
</svg>