<?xml version="1.0" encoding="UTF-8" standalone="no"?>
<!-- Generator: Adobe Illustrator 19.0.0, SVG Export Plug-In . SVG Version: 6.00 Build 0)  -->

<svg
   xmlns:dc="http://purl.org/dc/elements/1.1/"
   xmlns:cc="http://creativecommons.org/ns#"
   xmlns:rdf="http://www.w3.org/1999/02/22-rdf-syntax-ns#"
   xmlns:svg="http://www.w3.org/2000/svg"
   xmlns="http://www.w3.org/2000/svg"
   xmlns:sodipodi="http://sodipodi.sourceforge.net/DTD/sodipodi-0.dtd"
   xmlns:inkscape="http://www.inkscape.org/namespaces/inkscape"
   version="1.1"
   id="Layer_1"
   x="0px"
   y="0px"
   viewBox="0 0 128 128"
   xml:space="preserve"
   sodipodi:docname="avatar3.svg"
   width="128"
   height="128"
   inkscape:version="0.92.4 (5da689c313, 2019-01-14)"><metadata
   id="metadata69"><rdf:RDF><cc:Work
       rdf:about=""><dc:format>image/svg+xml</dc:format><dc:type
         rdf:resource="http://purl.org/dc/dcmitype/StillImage" /><dc:title></dc:title></cc:Work></rdf:RDF></metadata><defs
   id="defs67" /><sodipodi:namedview
   pagecolor="#ffffff"
   bordercolor="#666666"
   borderopacity="1"
   objecttolerance="10"
   gridtolerance="10"
   guidetolerance="10"
   inkscape:pageopacity="0"
   inkscape:pageshadow="2"
   inkscape:window-width="1920"
   inkscape:window-height="1017"
   id="namedview65"
   showgrid="false"
   inkscape:zoom="0.70697841"
   inkscape:cx="166.9075"
   inkscape:cy="166.9075"
   inkscape:window-x="1912"
   inkscape:window-y="-8"
   inkscape:window-maximized="1"
   inkscape:current-layer="Layer_1" />
<g
   id="XMLID_1400_"
   transform="matrix(0.28758412,0,0,0.28758412,15.99991,16.000106)">
	<g
   id="XMLID_1401_">
		<g
   id="XMLID_1402_">
			<path
   id="XMLID_1403_"
   style="fill:#f3d8b6"
   d="m 250.097,238.262 c -18.667,-6.681 -51.458,-11.736 -51.458,-81.376 h -29.23 -5.002 -29.23 c 0,69.64 -32.791,74.695 -51.458,81.376 0,47.368 68.832,48.824 80.688,53.239 v 1.537 c 0,0 0.922,-0.188 2.501,-0.68 1.579,0.492 2.501,0.68 2.501,0.68 v -1.537 c 11.856,-4.415 80.688,-5.871 80.688,-53.239 z"
   inkscape:connector-curvature="0" />
		</g>
		<path
   id="XMLID_1404_"
   style="fill:#eec8a2"
   d="m 198.639,156.886 h -29.23 -2.834 v 135.573 c 0.11,-0.033 0.216,-0.064 0.333,-0.101 1.579,0.492 2.501,0.68 2.501,0.68 V 291.5 c 11.856,-4.414 80.688,-5.871 80.688,-53.238 -18.667,-6.681 -51.458,-11.736 -51.458,-81.376 z"
   inkscape:connector-curvature="0" />
	</g>
	<g
   id="XMLID_1405_">
		
			<ellipse
   id="XMLID_65_"
   transform="matrix(0.3543,-0.9351,0.9351,0.3543,41.877,286.6909)"
   style="fill:#edceae"
   cx="228.53999"
   cy="113.021"
   rx="17.187"
   ry="10.048" />
		
			<ellipse
   id="XMLID_64_"
   transform="matrix(0.3543,0.9351,-0.9351,0.3543,172.9698,-24.4475)"
   style="fill:#f3dbc4"
   cx="104.188"
   cy="113.029"
   rx="17.187"
   ry="10.048" />
	</g>
	<g
   id="XMLID_1406_">
		<g
   id="XMLID_1407_">
			<path
   id="XMLID_1408_"
   style="fill:#f3dbc4"
   d="m 166.91,180.733 c -27.454,0 -48.409,-23.119 -57.799,-40.456 C 99.721,122.94 93.223,60.832 113.451,33.38 133.259,6.497 166.91,19.542 166.91,19.542 c 0,0 33.649,-13.045 53.458,13.838 20.226,27.452 13.726,89.56 4.335,106.897 -9.392,17.337 -30.344,40.456 -57.793,40.456 z"
   inkscape:connector-curvature="0" />
		</g>
		<path
   id="XMLID_1409_"
   style="fill:#edceae"
   d="M 220.368,33.381 C 200.558,6.497 166.91,19.543 166.91,19.543 c 0,0 -0.118,-0.045 -0.335,-0.123 v 161.305 c 0.112,0.001 0.222,0.009 0.335,0.009 27.449,0 48.401,-23.119 57.794,-40.456 9.39,-17.337 15.891,-79.445 -4.336,-106.897 z"
   inkscape:connector-curvature="0" />
	</g>
	<g
   id="XMLID_1410_">
		<g
   id="XMLID_1411_">
			<path
   id="XMLID_1414_"
   style="fill:#545465"
   d="m 286.89,293.134 v 40.681 H 46.926 v -40.681 c 0,-30.431 17.377,-56.963 40.605,-70.913 6.043,-3.641 19.69,-7.43 26.844,-9.196 5.953,-1.488 53.438,22.729 53.438,22.729 0,0 48.674,-23.218 54.627,-21.729 7.154,1.766 17.802,4.554 23.844,8.196 23.229,13.95 40.606,40.481 40.606,70.913 z"
   inkscape:connector-curvature="0" />
		</g>
		<path
   id="XMLID_1417_"
   style="fill:#494857"
   d="m 246.285,222.22 c -6.043,-3.641 -16.69,-6.429 -23.844,-8.196 -5.953,-1.488 -54.627,21.729 -54.627,21.729 0,0 -0.442,-0.225 -1.239,-0.627 v 98.688 H 286.89 v -40.681 c 0,-30.43 -17.377,-56.962 -40.605,-70.913 z"
   inkscape:connector-curvature="0" />
	</g>
	<g
   id="XMLID_1418_">
		<polygon
   id="XMLID_1419_"
   style="fill:#d7734a"
   points="188.575,240.372 166.908,233.538 145.241,240.372 159.555,251.364 150.575,333.814 183.241,333.814 174.261,251.364 " />
		<polygon
   id="XMLID_1420_"
   style="fill:#d35d3b"
   points="166.908,233.538 166.575,233.643 166.575,333.814 183.241,333.814 174.261,251.364 188.575,240.372 " />
	</g>
	<g
   id="XMLID_1421_">
		<path
   id="XMLID_1422_"
   style="fill:#ffffff"
   d="m 215.075,209.247 -48.167,23.441 -48.167,-23.441 c -11.5,5.5 10.396,38.436 14.833,36.833 10.963,-3.96 33.334,-10.329 33.334,-10.329 0,0 22.371,6.369 33.334,10.329 4.437,1.603 26.333,-31.333 14.833,-36.833 z"
   inkscape:connector-curvature="0" />
		<path
   id="XMLID_1423_"
   style="fill:#dedde0"
   d="m 215.075,209.247 -48.167,23.441 -0.333,-0.162 v 3.321 c 0.211,-0.061 0.333,-0.095 0.333,-0.095 0,0 22.371,6.369 33.334,10.329 4.437,1.602 26.333,-31.334 14.833,-36.834 z"
   inkscape:connector-curvature="0" />
	</g>
	<g
   id="XMLID_1424_">
		<path
   id="XMLID_1427_"
   style="fill:#e1a98c"
   d="m 183.075,160.793 -16.452,-3.907 -15.881,3.907 2.282,20.541 c 4.299,1.752 8.946,2.791 13.886,2.791 4.938,0 9.585,-1.039 13.883,-2.791 z"
   inkscape:connector-curvature="0" />
		<path
   id="XMLID_1428_"
   style="fill:#d2987b"
   d="m 166.623,156.886 -0.048,0.012 v 27.219 c 0.112,0.001 0.222,0.009 0.334,0.009 4.938,0 9.585,-1.039 13.883,-2.791 l 2.282,-20.542 z"
   inkscape:connector-curvature="0" />
	</g>
	<g
   id="XMLID_1429_">
		<g
   id="XMLID_1430_">
			<path
   id="XMLID_1433_"
   style="fill:#e1a98c"
   d="m 223.571,25.321 c -2.159,0.08 -12.282,-31.303 -39.282,-24.303 -18.537,4.806 -20.877,7.419 -28.12,9.463 -29.41,-9.014 -57.539,14.472 -56.495,36.488 1.759,37.07 -4.778,36.505 -0.295,49.454 4.483,12.949 8.466,23.407 8.466,23.407 0,0 0.996,3.565 2.988,-16.854 1.992,-20.419 -4.705,-31.379 11.137,-31.379 52.452,0 -19.698,20.372 13.952,20.372 33.391,0 59.203,-27.381 74.92,-29.372 15.716,-1.992 9.145,19.96 11.137,40.379 1.992,20.419 2.988,16.854 2.988,16.854 0,0 8.92,-9.712 8.466,-23.407 -0.51,-15.454 6.37,-71.704 -9.862,-71.102 z"
   inkscape:connector-curvature="0" />
		</g>
		<path
   id="XMLID_1434_"
   style="fill:#d2987b"
   d="M 223.571,25.322 C 221.412,25.402 211.289,-5.981 184.289,1.019 175.481,3.303 170.333,5.09 166.575,6.558 V 84.84 c 18.759,-8.259 33.769,-20.913 44.268,-22.243 15.716,-1.992 9.145,19.96 11.137,40.379 1.992,20.419 2.988,16.854 2.988,16.854 0,0 8.92,-9.712 8.466,-23.407 -0.511,-15.454 6.369,-71.704 -9.863,-71.101 z"
   inkscape:connector-curvature="0" />
	</g>
	<g
   id="XMLID_1435_">
		
			<ellipse
   id="XMLID_33_"
   transform="matrix(0.3543,-0.9351,0.9351,0.3543,41.877,286.6909)"
   style="fill:#edceae"
   cx="228.53999"
   cy="113.021"
   rx="17.187"
   ry="10.048" />
		
			<ellipse
   id="XMLID_32_"
   transform="matrix(0.3543,0.9351,-0.9351,0.3543,172.9698,-24.4475)"
   style="fill:#f3dbc4"
   cx="104.188"
   cy="113.029"
   rx="17.187"
   ry="10.048" />
	</g>
</g>
<g
   id="g34"
   transform="translate(0,-205.815)">
</g>
<g
   id="g36"
   transform="translate(0,-205.815)">
</g>
<g
   id="g38"
   transform="translate(0,-205.815)">
</g>
<g
   id="g40"
   transform="translate(0,-205.815)">
</g>
<g
   id="g42"
   transform="translate(0,-205.815)">
</g>
<g
   id="g44"
   transform="translate(0,-205.815)">
</g>
<g
   id="g46"
   transform="translate(0,-205.815)">
</g>
<g
   id="g48"
   transform="translate(0,-205.815)">
</g>
<g
   id="g50"
   transform="translate(0,-205.815)">
</g>
<g
   id="g52"
   transform="translate(0,-205.815)">
</g>
<g
   id="g54"
   transform="translate(0,-205.815)">
</g>
<g
   id="g56"
   transform="translate(0,-205.815)">
</g>
<g
   id="g58"
   transform="translate(0,-205.815)">
</g>
<g
   id="g60"
   transform="translate(0,-205.815)">
</g>
<g
   id="g62"
   transform="translate(0,-205.815)">
</g>
</svg>