<?xml version="1.0" encoding="UTF-8" standalone="no"?>
<!-- Generator: Adobe Illustrator 19.0.0, SVG Export Plug-In . SVG Version: 6.00 Build 0)  -->

<svg
   xmlns:dc="http://purl.org/dc/elements/1.1/"
   xmlns:cc="http://creativecommons.org/ns#"
   xmlns:rdf="http://www.w3.org/1999/02/22-rdf-syntax-ns#"
   xmlns:svg="http://www.w3.org/2000/svg"
   xmlns="http://www.w3.org/2000/svg"
   xmlns:sodipodi="http://sodipodi.sourceforge.net/DTD/sodipodi-0.dtd"
   xmlns:inkscape="http://www.inkscape.org/namespaces/inkscape"
   version="1.1"
   id="Layer_1"
   x="0px"
   y="0px"
   viewBox="0 0 128 128"
   xml:space="preserve"
   sodipodi:docname="avatar9.svg"
   width="128"
   height="128"
   inkscape:version="0.92.4 (5da689c313, 2019-01-14)"><metadata
   id="metadata61"><rdf:RDF><cc:Work
       rdf:about=""><dc:format>image/svg+xml</dc:format><dc:type
         rdf:resource="http://purl.org/dc/dcmitype/StillImage" /><dc:title></dc:title></cc:Work></rdf:RDF></metadata><defs
   id="defs59" /><sodipodi:namedview
   pagecolor="#ffffff"
   bordercolor="#666666"
   borderopacity="1"
   objecttolerance="10"
   gridtolerance="10"
   guidetolerance="10"
   inkscape:pageopacity="0"
   inkscape:pageshadow="2"
   inkscape:window-width="1920"
   inkscape:window-height="1017"
   id="namedview57"
   showgrid="false"
   inkscape:zoom="0.71171373"
   inkscape:cx="165.797"
   inkscape:cy="165.797"
   inkscape:window-x="1912"
   inkscape:window-y="-8"
   inkscape:window-maximized="1"
   inkscape:current-layer="Layer_1" />
<g
   id="XMLID_3_"
   transform="matrix(0.28951035,0,0,0.28951035,15.999908,16.000106)">
	<g
   id="XMLID_62_">
		<g
   id="XMLID_1228_">
			<path
   id="XMLID_1229_"
   style="fill:#f3d8b6"
   d="m 248.986,236.042 c -18.667,-6.681 -51.458,-11.736 -51.458,-81.376 h -29.23 -5.002 -29.23 c 0,69.64 -32.791,74.695 -51.458,81.376 0,47.368 68.832,48.824 80.688,53.239 v 1.537 c 0,0 0.922,-0.188 2.501,-0.68 1.579,0.492 2.501,0.68 2.501,0.68 v -1.537 c 11.855,-4.415 80.688,-5.872 80.688,-53.239 z"
   inkscape:connector-curvature="0" />
		</g>
		<path
   id="XMLID_1230_"
   style="fill:#eec8a2"
   d="m 197.528,154.666 h -29.23 -2.501 v 135.472 c 1.579,0.491 2.501,0.68 2.501,0.68 v -1.537 c 11.856,-4.414 80.688,-5.871 80.688,-53.239 -18.667,-6.681 -51.458,-11.736 -51.458,-81.376 z"
   inkscape:connector-curvature="0" />
	</g>
	<g
   id="XMLID_55_">
		<path
   id="XMLID_1233_"
   style="fill:#545465"
   d="m 285.326,290.913 v 40.681 H 45.363 v -40.681 c 0,-30.431 17.377,-56.963 40.605,-70.913 6.043,-3.641 19.69,-7.43 26.844,-9.196 5.953,-1.488 53.438,12.729 53.438,12.729 0,0 48.674,-13.218 54.627,-11.729 7.154,1.766 17.802,4.554 23.844,8.196 23.228,13.951 40.605,40.482 40.605,70.913 z"
   inkscape:connector-curvature="0" />
		<path
   id="XMLID_1236_"
   style="fill:#494857"
   d="m 245.627,220 c -6.042,-3.641 -19.69,-7.43 -26.844,-9.196 -5.953,-1.488 -52.533,12.729 -52.533,12.729 v 0 108.06 h 119.982 v -40.681 c 0,-30.43 -17.378,-56.961 -40.605,-70.912 z"
   inkscape:connector-curvature="0" />
	</g>
	<g
   id="XMLID_52_">
		<path
   id="XMLID_1237_"
   style="fill:#f3dbc4"
   d="m 165.799,176.828 c -27.454,0 -48.409,-23.119 -57.799,-40.456 -9.39,-17.337 -15.888,-79.445 4.34,-106.897 19.808,-26.883 53.459,-13.838 53.459,-13.838 0,0 33.649,-13.045 53.458,13.838 20.226,27.452 13.726,89.56 4.335,106.897 -9.392,17.337 -30.345,40.456 -57.793,40.456 z"
   inkscape:connector-curvature="0" />
		<path
   id="XMLID_1238_"
   style="fill:#edceae"
   d="M 219.257,29.476 C 199.447,2.593 165.799,15.638 165.799,15.638 h -0.002 v 161.191 c 0.001,0 0.001,0 0.002,0 27.449,0 48.401,-23.119 57.794,-40.456 9.39,-17.337 15.89,-79.445 -4.336,-106.897 z"
   inkscape:connector-curvature="0" />
	</g>
	<g
   id="XMLID_45_">
		<path
   id="XMLID_1241_"
   style="fill:#545465"
   d="M 223.252,25.321 C 221.093,25.401 210.97,-5.982 183.97,1.018 165.433,5.824 163.093,8.437 155.85,10.481 126.44,1.467 98.311,24.953 99.355,46.969 c 1.759,37.07 -4.778,36.505 -0.295,49.454 4.483,12.949 8.466,23.407 8.466,23.407 0,0 0.996,3.565 2.988,-16.854 1.992,-20.419 -4.705,-31.379 11.137,-31.379 52.452,0 -19.698,20.372 13.952,20.372 33.391,0 59.203,-27.381 74.92,-29.372 15.716,-1.992 9.145,19.96 11.137,40.379 1.992,20.419 2.988,16.854 2.988,16.854 0,0 8.92,-9.712 8.466,-23.407 -0.51,-15.454 6.37,-71.704 -9.862,-71.102 z"
   inkscape:connector-curvature="0" />
		<path
   id="XMLID_1244_"
   style="fill:#494857"
   d="M 223.252,25.322 C 221.093,25.402 210.97,-5.981 183.97,1.019 174.799,3.396 169.595,5.237 165.797,6.738 V 85.04 c 18.973,-8.253 34.142,-21.103 44.726,-22.443 15.717,-1.992 9.145,19.96 11.137,40.379 1.992,20.419 2.988,16.854 2.988,16.854 0,0 8.92,-9.712 8.466,-23.407 -0.51,-15.454 6.37,-71.704 -9.862,-71.101 z"
   inkscape:connector-curvature="0" />
	</g>
	<g
   id="XMLID_42_">
		
			<ellipse
   id="XMLID_44_"
   transform="matrix(0.3543,-0.9351,0.9351,0.3543,45.161,283.6375)"
   style="fill:#edceae"
   cx="227.97099"
   cy="109.116"
   rx="17.187"
   ry="10.048" />
		
			<ellipse
   id="XMLID_43_"
   transform="matrix(0.3543,0.9351,-0.9351,0.3543,168.9501,-26.4359)"
   style="fill:#f3dbc4"
   cx="103.618"
   cy="109.124"
   rx="17.187"
   ry="10.048" />
	</g>
	<g
   id="XMLID_38_">
		<g
   id="XMLID_1245_">
			<polygon
   id="XMLID_1246_"
   style="fill:#ffffff"
   points="118.136,204.664 165.797,218.388 213.458,204.664 213.458,331.594 118.136,331.594 " />
		</g>
		<polygon
   id="XMLID_1247_"
   style="fill:#dfe0e7"
   points="213.458,204.664 165.797,218.388 165.797,331.594 213.458,331.594 " />
	</g>
	<g
   id="XMLID_4_">
		<path
   id="XMLID_35_"
   style="fill:#494857"
   d="m 126.777,201.164 c 0,0 -32.452,8.501 -39.684,18.626 -7.232,10.124 -11.571,23.865 -11.571,23.865 l 28.204,10.124 -20.887,20.344 28.811,57.366 h 26.791 c 0,0 -20.868,-72.454 -21.331,-97.992 -0.151,-8.367 9.667,-32.333 9.667,-32.333 z"
   inkscape:connector-curvature="0" />
		<path
   id="XMLID_1251_"
   style="fill:#3b3a47"
   d="m 204.817,201.164 c 0,0 32.452,8.501 39.684,18.626 7.232,10.124 11.571,23.865 11.571,23.865 l -28.204,10.124 20.887,20.344 -28.15,57.366 h -26.791 c 0,0 20.207,-72.454 20.669,-97.992 0.152,-8.367 -9.666,-32.333 -9.666,-32.333 z"
   inkscape:connector-curvature="0" />
	</g>
</g>
<g
   id="g26"
   transform="translate(0,-203.59399)">
</g>
<g
   id="g28"
   transform="translate(0,-203.59399)">
</g>
<g
   id="g30"
   transform="translate(0,-203.59399)">
</g>
<g
   id="g32"
   transform="translate(0,-203.59399)">
</g>
<g
   id="g34"
   transform="translate(0,-203.59399)">
</g>
<g
   id="g36"
   transform="translate(0,-203.59399)">
</g>
<g
   id="g38"
   transform="translate(0,-203.59399)">
</g>
<g
   id="g40"
   transform="translate(0,-203.59399)">
</g>
<g
   id="g42"
   transform="translate(0,-203.59399)">
</g>
<g
   id="g44"
   transform="translate(0,-203.59399)">
</g>
<g
   id="g46"
   transform="translate(0,-203.59399)">
</g>
<g
   id="g48"
   transform="translate(0,-203.59399)">
</g>
<g
   id="g50"
   transform="translate(0,-203.59399)">
</g>
<g
   id="g52"
   transform="translate(0,-203.59399)">
</g>
<g
   id="g54"
   transform="translate(0,-203.59399)">
</g>
</svg>