<?xml version="1.0" encoding="UTF-8" standalone="no"?>
<!-- Generator: Adobe Illustrator 19.0.0, SVG Export Plug-In . SVG Version: 6.00 Build 0)  -->

<svg
   xmlns:dc="http://purl.org/dc/elements/1.1/"
   xmlns:cc="http://creativecommons.org/ns#"
   xmlns:rdf="http://www.w3.org/1999/02/22-rdf-syntax-ns#"
   xmlns:svg="http://www.w3.org/2000/svg"
   xmlns="http://www.w3.org/2000/svg"
   xmlns:sodipodi="http://sodipodi.sourceforge.net/DTD/sodipodi-0.dtd"
   xmlns:inkscape="http://www.inkscape.org/namespaces/inkscape"
   version="1.1"
   id="Layer_1"
   x="0px"
   y="0px"
   viewBox="0 0 128 128"
   xml:space="preserve"
   sodipodi:docname="avatar2.svg"
   width="128"
   height="128"
   inkscape:version="0.92.4 (5da689c313, 2019-01-14)"><metadata
   id="metadata57"><rdf:RDF><cc:Work
       rdf:about=""><dc:format>image/svg+xml</dc:format><dc:type
         rdf:resource="http://purl.org/dc/dcmitype/StillImage" /><dc:title></dc:title></cc:Work></rdf:RDF></metadata><defs
   id="defs55" /><sodipodi:namedview
   pagecolor="#ffffff"
   bordercolor="#666666"
   borderopacity="1"
   objecttolerance="10"
   gridtolerance="10"
   guidetolerance="10"
   inkscape:pageopacity="0"
   inkscape:pageshadow="2"
   inkscape:window-width="1920"
   inkscape:window-height="1017"
   id="namedview53"
   showgrid="false"
   inkscape:zoom="0.6898386"
   inkscape:cx="171.0545"
   inkscape:cy="171.0545"
   inkscape:window-x="1912"
   inkscape:window-y="-8"
   inkscape:window-maximized="1"
   inkscape:current-layer="Layer_1" />
<g
   id="XMLID_12_"
   transform="matrix(0.28061232,0,0,0.28061232,16.000139,16)">
	<g
   id="XMLID_52_">
		<path
   id="XMLID_990_"
   style="fill:#ffffff"
   d="m 250.429,249.259 v 92.74 H 91.679 v -92.77 c 0.01,-0.01 0.02,-0.01 0.03,-0.02 3.95,-2.37 12.43,-4.38 19.82,-5.99 v 50.32 h 119.06 v -50.27 c 7.4,1.6 15.88,3.62 19.84,5.99 z"
   inkscape:connector-curvature="0" />
	</g>
	<g
   id="XMLID_45_">
		<path
   id="XMLID_993_"
   style="fill:#545465"
   d="M 270.54,283.677 C 296.93,259.618 281.694,163.208 281.694,141.27 281.694,59.796 238.948,0 171.054,0 103.16,0 60.414,59.796 60.414,141.269 c 0,21.938 -15.236,118.348 11.154,142.407 36.759,33.514 162.213,33.514 198.972,0.001 z"
   inkscape:connector-curvature="0" />
		<path
   id="XMLID_996_"
   style="fill:#494857"
   d="M 281.694,141.27 C 281.694,59.796 238.948,0 171.054,0 v 308.812 c 40.553,0 81.107,-8.378 99.486,-25.135 26.39,-24.06 11.154,-120.469 11.154,-142.407 z"
   inkscape:connector-curvature="0" />
	</g>
	<g
   id="XMLID_41_">
		<g
   id="XMLID_997_">
			<path
   id="XMLID_998_"
   style="fill:#f3d8b6"
   d="m 199.383,187.53 h -26.884 -1.256 -0.379 -1.256 -26.884 c 0,74.552 -36.43,67.808 -36.43,67.808 0,47.368 51.162,62.392 63.313,66.806 v 1.537 c 0,0 0.533,-0.11 1.446,-0.359 0.912,0.249 1.446,0.359 1.446,0.359 v -1.537 c 12.151,-4.414 63.313,-19.439 63.313,-66.806 10e-4,0 -36.429,6.744 -36.429,-67.808 z"
   inkscape:connector-curvature="0" />
		</g>
		<path
   id="XMLID_999_"
   style="fill:#eec8a2"
   d="m 199.383,187.53 h -26.884 -1.256 -0.189 v 135.792 c 0.912,0.249 1.446,0.359 1.446,0.359 v -1.537 c 12.151,-4.414 63.313,-19.438 63.313,-66.806 0,0 -36.43,6.744 -36.43,-67.808 z"
   inkscape:connector-curvature="0" />
	</g>
	<g
   id="XMLID_38_">
		<path
   id="XMLID_40_"
   style="fill:#ff628b"
   d="m 288.044,320.259 -0.02,21.78 v 0.07 l -102.36,-0.07 -14.58,-0.01 -43.91,-0.03 -35.47,-0.02 -37.64,-0.03 0.02,-21.85 c 0,-3.12 0.15,-6.19 0.45,-9.22 1.48,-15.11 6.59,-28.97 14.57,-40.41 6,-8.62 13.64,-15.86 22.6,-21.24 0.01,-0.01 0.02,-0.01 0.03,-0.02 3.95,-2.37 12.43,-4.38 19.82,-5.99 3.93,-0.84 7.55,-1.58 10.03,-2.19 2.404,-0.598 49.488,33.275 49.488,33.275 0,0 47.337,-33.757 49.572,-33.195 2.47,0.61 6.07,1.35 9.97,2.19 7.39,1.61 15.86,3.62 19.84,6 0.01,0 0.03,0.01 0.04,0.02 4.35,2.62 8.39,5.68 12.08,9.12 0.92,0.86 1.81,1.74 2.7,2.64 v 0.01 c 0.58,0.61 1.16,1.22 1.73,1.85 0.34,0.37 0.67,0.75 1,1.13 0.22,0.26 0.44,0.52 0.66,0.78 0.29,0.33 0.56,0.66 0.84,1 0.26,0.32 0.52,0.64 0.77,0.96 0.26,0.33 0.52,0.67 0.78,1 10.82,14.17 17,32.47 16.99,52.45 z"
   inkscape:connector-curvature="0" />
		<path
   id="XMLID_39_"
   style="fill:#c85279"
   d="m 271.054,267.809 c -0.26,-0.33 -0.52,-0.67 -0.78,-1 -0.25,-0.32 -0.51,-0.64 -0.77,-0.96 -0.28,-0.34 -0.55,-0.67 -0.84,-1 -0.22,-0.26 -0.44,-0.52 -0.66,-0.78 -0.33,-0.38 -0.66,-0.76 -1,-1.13 -0.57,-0.63 -1.15,-1.24 -1.73,-1.85 v -0.01 c -0.89,-0.9 -1.78,-1.78 -2.7,-2.64 -3.69,-3.44 -7.73,-6.5 -12.08,-9.12 -0.01,-0.01 -0.03,-0.02 -0.04,-0.02 -3.98,-2.38 -12.45,-4.39 -19.84,-6 -3.9,-0.84 -7.5,-1.58 -9.97,-2.19 -2.236,-0.562 -49.572,33.195 -49.572,33.195 0,0 -0.012,-0.008 -0.018,-0.013 v 67.737 h 0.03 l 14.58,0.01 102.36,0.07 v -0.07 l 0.02,-21.78 c 0.01,-19.979 -6.17,-38.279 -16.99,-52.449 z"
   inkscape:connector-curvature="0" />
	</g>
	<g
   id="XMLID_35_">
		<path
   id="XMLID_1000_"
   style="fill:#f3dbc4"
   d="m 107.088,120.926 c 1.012,21.074 4.4,39.808 8.31,47.027 9.043,16.694 29.221,38.957 55.657,38.957 26.431,0 46.607,-22.262 55.652,-38.957 3.91,-7.219 7.298,-25.953 8.311,-47.027 z"
   inkscape:connector-curvature="0" />
		<path
   id="XMLID_1001_"
   style="fill:#edceae"
   d="m 171.054,120.926 v 85.984 c 0.001,0 0.001,0 0.002,0 26.431,0 46.607,-22.262 55.652,-38.957 3.91,-7.219 7.298,-25.953 8.311,-47.027 z"
   inkscape:connector-curvature="0" />
	</g>
	<g
   id="XMLID_13_">
		<g
   id="XMLID_33_">
			<path
   id="XMLID_1003_"
   style="fill:#ffffff"
   d="m 250.429,249.259 v 92.74 H 91.679 v -92.77 c 0.01,-0.01 0.02,-0.01 0.03,-0.02 3.95,-2.37 12.43,-4.38 19.82,-5.99 v 50.32 h 119.06 v -50.27 c 7.4,1.6 15.88,3.62 19.84,5.99 z"
   inkscape:connector-curvature="0" />
		</g>
		<path
   id="XMLID_32_"
   style="fill:#dedde0"
   d="m 230.589,243.269 v 50.27 h -59.535 v 48.46 h 79.375 v -92.74 c -3.96,-2.37 -12.44,-4.39 -19.84,-5.99 z"
   inkscape:connector-curvature="0" />
	</g>
</g>
<g
   id="g22"
   transform="translate(0,-214.10901)">
</g>
<g
   id="g24"
   transform="translate(0,-214.10901)">
</g>
<g
   id="g26"
   transform="translate(0,-214.10901)">
</g>
<g
   id="g28"
   transform="translate(0,-214.10901)">
</g>
<g
   id="g30"
   transform="translate(0,-214.10901)">
</g>
<g
   id="g32"
   transform="translate(0,-214.10901)">
</g>
<g
   id="g34"
   transform="translate(0,-214.10901)">
</g>
<g
   id="g36"
   transform="translate(0,-214.10901)">
</g>
<g
   id="g38"
   transform="translate(0,-214.10901)">
</g>
<g
   id="g40"
   transform="translate(0,-214.10901)">
</g>
<g
   id="g42"
   transform="translate(0,-214.10901)">
</g>
<g
   id="g44"
   transform="translate(0,-214.10901)">
</g>
<g
   id="g46"
   transform="translate(0,-214.10901)">
</g>
<g
   id="g48"
   transform="translate(0,-214.10901)">
</g>
<g
   id="g50"
   transform="translate(0,-214.10901)">
</g>
</svg>