<?xml version="1.0" encoding="UTF-8" standalone="no"?>
<!-- Generator: Adobe Illustrator 19.0.0, SVG Export Plug-In . SVG Version: 6.00 Build 0)  -->

<svg
   xmlns:dc="http://purl.org/dc/elements/1.1/"
   xmlns:cc="http://creativecommons.org/ns#"
   xmlns:rdf="http://www.w3.org/1999/02/22-rdf-syntax-ns#"
   xmlns:svg="http://www.w3.org/2000/svg"
   xmlns="http://www.w3.org/2000/svg"
   xmlns:sodipodi="http://sodipodi.sourceforge.net/DTD/sodipodi-0.dtd"
   xmlns:inkscape="http://www.inkscape.org/namespaces/inkscape"
   version="1.1"
   id="Layer_1"
   x="0px"
   y="0px"
   viewBox="0 0 128 128"
   xml:space="preserve"
   sodipodi:docname="avatar7.svg"
   width="128"
   height="128"
   inkscape:version="0.92.4 (5da689c313, 2019-01-14)"><metadata
   id="metadata64"><rdf:RDF><cc:Work
       rdf:about=""><dc:format>image/svg+xml</dc:format><dc:type
         rdf:resource="http://purl.org/dc/dcmitype/StillImage" /><dc:title></dc:title></cc:Work></rdf:RDF></metadata><defs
   id="defs62" /><sodipodi:namedview
   pagecolor="#ffffff"
   bordercolor="#666666"
   borderopacity="1"
   objecttolerance="10"
   gridtolerance="10"
   guidetolerance="10"
   inkscape:pageopacity="0"
   inkscape:pageshadow="2"
   inkscape:window-width="1920"
   inkscape:window-height="1017"
   id="namedview60"
   showgrid="false"
   inkscape:zoom="0.7075422"
   inkscape:cx="166.77451"
   inkscape:cy="166.77451"
   inkscape:window-x="1912"
   inkscape:window-y="-8"
   inkscape:window-maximized="1"
   inkscape:current-layer="Layer_1" />
<g
   id="XMLID_1337_"
   transform="matrix(0.28781372,0,0,0.28781372,15.999867,16.000021)">
	<g
   id="XMLID_1338_">
		<g
   id="XMLID_1339_">
			<path
   id="XMLID_1340_"
   style="fill:#f3d8b6"
   d="m 260.026,237.405 c -18.667,-6.681 -61.458,-11.736 -61.458,-81.376 h -29.23 -5.002 -29.23 c 0,69.64 -42.791,74.695 -61.458,81.376 0,47.368 78.832,48.824 90.688,53.239 v 1.537 c 0,0 0.922,-0.188 2.501,-0.68 1.579,0.492 2.501,0.68 2.501,0.68 v -1.537 c 11.856,-4.414 90.688,-5.871 90.688,-53.239 z"
   inkscape:connector-curvature="0" />
		</g>
		<path
   id="XMLID_1341_"
   style="fill:#eec8a2"
   d="m 198.568,156.03 h -29.23 -2.376 v 135.509 c 1.499,0.462 2.376,0.642 2.376,0.642 v -1.537 c 11.856,-4.414 90.688,-5.871 90.688,-53.239 -18.667,-6.68 -61.458,-11.736 -61.458,-81.375 z"
   inkscape:connector-curvature="0" />
	</g>
	<g
   id="XMLID_1342_">
		<g
   id="XMLID_1343_">
			<path
   id="XMLID_1344_"
   style="fill:#f3dbc4"
   d="m 166.839,178.782 c -27.454,0 -48.409,-23.119 -57.799,-40.456 -9.39,-17.337 -15.888,-69.445 4.34,-96.897 19.808,-26.883 53.459,-23.838 53.459,-23.838 0,0 33.649,-3.045 53.458,23.838 20.226,27.452 13.726,79.56 4.335,96.897 -9.392,17.337 -30.344,40.456 -57.793,40.456 z"
   inkscape:connector-curvature="0" />
		</g>
		<path
   id="XMLID_1345_"
   style="fill:#edceae"
   d="M 220.298,41.429 C 201.164,15.463 169.126,17.417 166.963,17.581 v 161.197 c 27.388,-0.069 48.292,-23.142 57.671,-40.452 9.389,-17.337 15.89,-69.444 -4.336,-96.897 z"
   inkscape:connector-curvature="0" />
	</g>
	<g
   id="XMLID_1346_">
		<g
   id="XMLID_1347_">
			<path
   id="XMLID_52_"
   style="fill:#682234"
   d="m 201.509,25.918 c 0,0 -24.427,-32.813 -39.707,-24.598 -39.045,20.991 -44.219,18.365 -52.979,21.408 -21.241,7.377 -21.798,-2.595 -19.122,13.776 8.879,54.319 -0.557,79.337 15.961,59.147 16.518,-20.19 22.025,-15.423 64.073,-20.012 42.048,-4.589 15.256,-23.363 37.28,-8.18 22.024,15.183 24.919,42.732 28.589,42.732 3.671,0 11.84,-52.59 6.283,-68.911 C 230.025,6.439 201.509,25.918 201.509,25.918 Z"
   inkscape:connector-curvature="0" />
		</g>
		<path
   id="XMLID_1348_"
   style="fill:#581a2b"
   d="M 241.888,41.281 C 230.026,6.439 201.51,25.919 201.51,25.919 c 0,0 -19.495,-26.185 -34.547,-25.914 v 75.926 c 0.913,-0.095 1.823,-0.188 2.773,-0.292 42.047,-4.588 15.256,-23.363 37.28,-8.18 22.025,15.184 24.919,42.732 28.589,42.732 3.671,10e-4 11.84,-52.588 6.283,-68.91 z"
   inkscape:connector-curvature="0" />
	</g>
	<g
   id="XMLID_1349_">
		<g
   id="XMLID_1350_">
			<path
   id="XMLID_1353_"
   style="fill:#66a299"
   d="m 286.819,292.867 -0.125,40.681 H 46.731 l 0.125,-40.681 c 0,-30.431 17.377,-56.963 40.605,-70.913 6.043,-3.641 23.69,-6.43 30.844,-8.196 5.953,-1.488 48.642,41.766 48.642,41.766 0,0 45.47,-43.254 51.423,-41.766 7.154,1.766 21.802,4.554 27.844,8.196 23.228,13.95 40.605,40.482 40.605,70.913 z"
   inkscape:connector-curvature="0" />
		</g>
		<path
   id="XMLID_1356_"
   style="fill:#5a9291"
   d="m 246.105,221.954 c -6.043,-3.641 -20.69,-6.429 -27.844,-8.195 -5.953,-1.488 -51.314,41.766 -51.314,41.766 l -0.094,78.024 H 286.71 v -40.681 c 0,-30.432 -17.377,-56.964 -40.605,-70.914 z"
   inkscape:connector-curvature="0" />
	</g>
	<g
   id="XMLID_1357_">
		<rect
   id="XMLID_40_"
   x="197.287"
   y="292.64999"
   style="fill:#b7cae9"
   width="52"
   height="11.333" />
		<rect
   id="XMLID_39_"
   x="202.955"
   y="299.98401"
   style="fill:#b7cae9"
   width="40.664001"
   height="26" />
	</g>
	<g
   id="XMLID_1358_">
		<g
   id="XMLID_1359_">
			<path
   id="XMLID_1360_"
   style="fill:#a7b8d4"
   d="m 208.832,99.567 h -27.689 c -1.185,0 -2.356,0.243 -3.431,0.713 l -10.874,3.873 -10.874,-3.873 c -1.075,-0.47 -2.246,-0.713 -3.431,-0.713 h -27.688 c -5.509,0 -7.411,9.474 -7.411,9.474 0,12.532 9.191,22.692 23.756,22.692 8.882,0 17.409,-9.44 22.649,-17.081 h 6 c 5.24,7.641 13.768,17.081 22.649,17.081 14.565,0 23.756,-10.16 23.756,-22.692 -0.002,0.001 -1.903,-9.474 -7.412,-9.474 z"
   inkscape:connector-curvature="0" />
		</g>
		<path
   id="XMLID_1361_"
   style="fill:#8aa4c2"
   d="m 208.832,99.567 h -27.689 c -1.185,0 -2.356,0.243 -3.431,0.713 l -10.749,3.829 v 10.544 h 2.875 c 5.24,7.641 13.768,17.081 22.649,17.081 14.565,0 23.756,-10.16 23.756,-22.692 -0.001,0 -1.902,-9.475 -7.411,-9.475 z"
   inkscape:connector-curvature="0" />
	</g>
	<g
   id="XMLID_1362_">
		
			<ellipse
   id="XMLID_33_"
   transform="matrix(0.3543,-0.9351,0.9351,0.3543,44.0056,285.8713)"
   style="fill:#edceae"
   cx="229.011"
   cy="111.07"
   rx="17.187"
   ry="10.048" />
		
			<ellipse
   id="XMLID_32_"
   transform="matrix(0.3543,0.9351,-0.9351,0.3543,171.4488,-26.1479)"
   style="fill:#f3dbc4"
   cx="104.659"
   cy="111.077"
   rx="17.187"
   ry="10.048" />
	</g>
</g>
<g
   id="g29"
   transform="translate(0,-205.54901)">
</g>
<g
   id="g31"
   transform="translate(0,-205.54901)">
</g>
<g
   id="g33"
   transform="translate(0,-205.54901)">
</g>
<g
   id="g35"
   transform="translate(0,-205.54901)">
</g>
<g
   id="g37"
   transform="translate(0,-205.54901)">
</g>
<g
   id="g39"
   transform="translate(0,-205.54901)">
</g>
<g
   id="g41"
   transform="translate(0,-205.54901)">
</g>
<g
   id="g43"
   transform="translate(0,-205.54901)">
</g>
<g
   id="g45"
   transform="translate(0,-205.54901)">
</g>
<g
   id="g47"
   transform="translate(0,-205.54901)">
</g>
<g
   id="g49"
   transform="translate(0,-205.54901)">
</g>
<g
   id="g51"
   transform="translate(0,-205.54901)">
</g>
<g
   id="g53"
   transform="translate(0,-205.54901)">
</g>
<g
   id="g55"
   transform="translate(0,-205.54901)">
</g>
<g
   id="g57"
   transform="translate(0,-205.54901)">
</g>
</svg>