<?xml version="1.0" encoding="UTF-8" standalone="no"?>
<!-- Generator: Adobe Illustrator 19.0.0, SVG Export Plug-In . SVG Version: 6.00 Build 0)  -->

<svg
   xmlns:dc="http://purl.org/dc/elements/1.1/"
   xmlns:cc="http://creativecommons.org/ns#"
   xmlns:rdf="http://www.w3.org/1999/02/22-rdf-syntax-ns#"
   xmlns:svg="http://www.w3.org/2000/svg"
   xmlns="http://www.w3.org/2000/svg"
   xmlns:sodipodi="http://sodipodi.sourceforge.net/DTD/sodipodi-0.dtd"
   xmlns:inkscape="http://www.inkscape.org/namespaces/inkscape"
   version="1.1"
   id="Layer_1"
   x="0px"
   y="0px"
   viewBox="0 0 127.99999 127.99999"
   xml:space="preserve"
   sodipodi:docname="avatar5.svg"
   width="128"
   height="128"
   inkscape:version="0.92.4 (5da689c313, 2019-01-14)"><metadata
   id="metadata53"><rdf:RDF><cc:Work
       rdf:about=""><dc:format>image/svg+xml</dc:format><dc:type
         rdf:resource="http://purl.org/dc/dcmitype/StillImage" /><dc:title></dc:title></cc:Work></rdf:RDF></metadata><defs
   id="defs51" /><sodipodi:namedview
   pagecolor="#ffffff"
   bordercolor="#666666"
   borderopacity="1"
   objecttolerance="10"
   gridtolerance="10"
   guidetolerance="10"
   inkscape:pageopacity="0"
   inkscape:pageshadow="2"
   inkscape:window-width="1920"
   inkscape:window-height="1017"
   id="namedview49"
   showgrid="false"
   inkscape:zoom="0.72188912"
   inkscape:cx="163.46001"
   inkscape:cy="163.46001"
   inkscape:window-x="1912"
   inkscape:window-y="-8"
   inkscape:window-maximized="1"
   inkscape:current-layer="Layer_1" />
<g
   id="XMLID_34_"
   transform="matrix(0.29364982,0,0,0.29364982,16,16)">
	<g
   id="XMLID_45_">
		<path
   id="XMLID_47_"
   style="fill:#ff628b"
   d="m 242.837,234.153 c -6.043,-3.641 -12.69,-6.43 -19.844,-8.196 -4.824,-1.206 -17.048,-1.949 -25.018,-2.188 -8.189,8.543 -20.608,13.994 -34.515,13.994 -13.907,0 -24.326,-5.451 -32.515,-13.994 -7.969,0.239 -22.194,0.982 -27.018,2.188 -7.154,1.766 -13.802,4.554 -19.844,8.196 -23.228,13.951 -37.605,40.482 -37.605,70.913 v 21.849 h 233.963 v -21.849 c 0.001,-30.431 -14.377,-56.962 -37.604,-70.913 z"
   inkscape:connector-curvature="0" />
		<path
   id="XMLID_46_"
   style="fill:#c85279"
   d="m 280.44,305.07 v 21.85 H 163.46 v -89.16 c 13.91,0 24.33,-5.45 32.51,-13.99 7.97,0.24 22.2,0.98 27.02,2.19 7.16,1.76 13.8,4.55 19.85,8.19 17.23,10.35 29.59,27.63 34.82,48.28 1.82,7.19 2.78,14.78 2.78,22.64 z"
   inkscape:connector-curvature="0" />
	</g>
	<g
   id="XMLID_40_">
		<path
   id="XMLID_169_"
   style="fill:#e1a98c"
   d="M 268.84,127.26 C 266.76,66.35 239.06,19.36 194.27,4.75 194.26,4.75 194.26,4.74 194.25,4.74 184.73,1.64 174.44,0 163.46,0 151.07,0 139.55,2.09 129.04,6.01 86.38,21.92 60.11,68 58.08,127.26 c -9.36,7.59 -15.35,19.19 -15.35,32.19 0,22.9 18.56,41.46 41.46,41.46 30.86,0 55.59,17.08 78.54,17.01 0.24,0 0.49,-0.01 0.73,-0.02 0.36,-0.01 0.71,-0.02 1.07,-0.03 0.53,-0.02 1.07,-0.05 1.61,-0.09 1.07,-0.07 2.16,-0.18 3.24,-0.32 0.55,-0.07 1.09,-0.15 1.64,-0.23 0.72,-0.12 1.45,-0.24 2.19,-0.37 0.73,-0.14 1.47,-0.29 2.21,-0.44 0.37,-0.08 0.74,-0.16 1.11,-0.24 0.37,-0.09 0.74,-0.17 1.12,-0.26 0.37,-0.09 0.74,-0.18 1.12,-0.27 0.75,-0.19 1.5,-0.38 2.25,-0.58 0.19,-0.05 0.38,-0.1 0.57,-0.15 1.53,-0.41 3.07,-0.86 4.63,-1.33 0.18,-0.06 0.35,-0.11 0.53,-0.16 1.93,-0.59 3.88,-1.21 5.86,-1.84 0.24,-0.08 0.48,-0.16 0.72,-0.23 0.4,-0.14 0.8,-0.27 1.21,-0.39 0.15,-0.06 0.3,-0.11 0.45,-0.15 0.4,-0.13 0.8,-0.26 1.2,-0.39 0.4,-0.13 0.81,-0.27 1.21,-0.39 1.07,-0.35 2.16,-0.7 3.26,-1.05 0.41,-0.14 0.82,-0.27 1.24,-0.4 0.95,-0.3 1.91,-0.61 2.87,-0.9 0.72,-0.23 1.44,-0.45 2.17,-0.66 1.7,-0.52 3.41,-1.01 5.15,-1.49 0.44,-0.12 0.87,-0.24 1.31,-0.35 0.96,-0.26 1.93,-0.51 2.9,-0.76 0.8,-0.19 1.6,-0.39 2.4,-0.57 0.45,-0.1 0.9,-0.21 1.35,-0.3 0.07,-0.02 0.15,-0.04 0.23,-0.05 0.44,-0.1 0.89,-0.2 1.34,-0.29 0.48,-0.1 0.96,-0.2 1.44,-0.29 0.42,-0.09 0.84,-0.17 1.26,-0.24 2.23,-0.42 4.49,-0.77 6.79,-1.05 0.38,-0.05 0.77,-0.1 1.16,-0.14 0.7,-0.08 1.4,-0.15 2.1,-0.21 0.37,-0.03 0.73,-0.06 1.1,-0.09 2.38,-0.19 4.8,-0.29 7.26,-0.29 21.8,0 41.46,-18.56 41.46,-41.46 0,-13 -5.99,-24.6 -15.35,-32.19 z"
   inkscape:connector-curvature="0" />
		<path
   id="XMLID_197_"
   style="fill:#d2987b"
   d="M 268.84,127.26 C 266.76,66.35 239.06,19.36 194.27,4.75 194.26,4.75 194.26,4.74 194.25,4.74 184.73,1.64 174.44,0 163.46,0 v 206.86 11.04 c 0.36,-0.01 0.71,-0.02 1.07,-0.03 0.53,-0.02 1.07,-0.05 1.61,-0.09 1.07,-0.08 2.16,-0.19 3.24,-0.32 0.55,-0.07 1.09,-0.15 1.64,-0.23 0.72,-0.12 1.45,-0.24 2.19,-0.37 0.73,-0.14 1.47,-0.29 2.21,-0.44 0.37,-0.08 0.74,-0.16 1.11,-0.24 0.37,-0.09 0.74,-0.17 1.12,-0.26 0.37,-0.09 0.74,-0.18 1.12,-0.27 0.75,-0.19 1.5,-0.38 2.25,-0.58 0.19,-0.05 0.38,-0.1 0.57,-0.15 1.53,-0.42 3.07,-0.87 4.63,-1.33 0.18,-0.06 0.35,-0.11 0.53,-0.16 1.93,-0.59 3.88,-1.21 5.86,-1.84 0.24,-0.08 0.48,-0.16 0.72,-0.23 0.4,-0.14 0.8,-0.27 1.21,-0.39 0.15,-0.06 0.3,-0.11 0.45,-0.15 0.4,-0.13 0.8,-0.26 1.2,-0.39 0.4,-0.13 0.81,-0.27 1.21,-0.39 1.08,-0.36 2.17,-0.71 3.26,-1.05 0.41,-0.14 0.82,-0.27 1.24,-0.4 0.95,-0.3 1.91,-0.61 2.87,-0.9 0.72,-0.23 1.44,-0.45 2.17,-0.66 1.7,-0.52 3.41,-1.01 5.15,-1.49 0.44,-0.12 0.87,-0.24 1.31,-0.35 0.96,-0.26 1.93,-0.51 2.9,-0.76 0.8,-0.19 1.6,-0.39 2.4,-0.57 0.45,-0.1 0.9,-0.21 1.35,-0.3 0.07,-0.02 0.15,-0.04 0.23,-0.05 0.44,-0.1 0.89,-0.2 1.34,-0.29 0.48,-0.1 0.96,-0.2 1.44,-0.29 0.42,-0.09 0.84,-0.17 1.26,-0.24 2.23,-0.42 4.49,-0.77 6.79,-1.05 0.38,-0.05 0.77,-0.1 1.16,-0.14 0.7,-0.08 1.4,-0.15 2.1,-0.21 0.37,-0.03 0.73,-0.06 1.1,-0.09 2.38,-0.19 4.8,-0.29 7.26,-0.29 21.8,0 41.46,-18.56 41.46,-41.46 0,-13 -5.99,-24.6 -15.35,-32.19 z"
   inkscape:connector-curvature="0" />
	</g>
	<g
   id="XMLID_39_">
		<path
   id="XMLID_221_"
   style="fill:#f3d8b6"
   d="m 188.749,168.919 h -23.999 -1.121 -0.338 -1.121 -23.998 c 0,42.803 -19.646,58.804 -28.776,64.673 l 8.927,41.075 c 14.356,18.412 36.688,25.952 43.848,28.866 h 2.581 c 7.16,-2.914 29.492,-10.454 43.848,-28.866 l 8.927,-41.075 c -9.132,-5.869 -28.778,-21.87 -28.778,-64.673 z"
   inkscape:connector-curvature="0" />
		<path
   id="XMLID_222_"
   style="fill:#eec8a2"
   d="m 217.525,233.592 c -9.13,-5.869 -28.776,-21.87 -28.776,-64.673 h -23.999 -1.121 -0.169 v 134.614 h 1.29 c 7.16,-2.914 29.492,-10.454 43.848,-28.866 z"
   inkscape:connector-curvature="0" />
	</g>
	<g
   id="XMLID_38_">
		<path
   id="XMLID_223_"
   style="fill:#f3dbc4"
   d="m 143.938,74.755 c -1.601,-2.747 -3.074,-5.376 -4.444,-7.916 -8.147,18.49 -27.525,41.72 -40.005,44.833 1.005,21.124 4.398,39.916 8.316,47.149 9.042,16.694 29.221,38.957 55.657,38.957 26.431,0 46.607,-22.262 55.652,-38.957 3.924,-7.244 7.322,-26.082 8.322,-47.246 -13.894,-1.076 -66.159,-7.061 -83.498,-36.82 z"
   inkscape:connector-curvature="0" />
		<path
   id="XMLID_224_"
   style="fill:#edceae"
   d="m 163.46,93.593 v 104.186 c 0,0 0.001,0 0.002,0 26.431,0 46.607,-22.262 55.652,-38.957 3.924,-7.245 7.322,-26.083 8.322,-47.246 -10.255,-0.796 -41.389,-4.267 -63.976,-17.983 z"
   inkscape:connector-curvature="0" />
	</g>
	<g
   id="XMLID_35_">
		<path
   id="XMLID_37_"
   style="fill:#ffeb99"
   d="m 112.916,249.793 5.406,25.682 c 14.356,18.412 36.688,25.952 43.848,28.866 h 2.581 c 7.16,-2.914 29.492,-10.454 43.848,-28.866 l 5.424,-25.683 z"
   inkscape:connector-curvature="0" />
		<path
   id="XMLID_36_"
   style="fill:#ffe477"
   d="m 163.46,249.793 v 54.549 h 1.29 c 7.16,-2.914 29.492,-10.454 43.848,-28.866 l 5.424,-25.683 z"
   inkscape:connector-curvature="0" />
	</g>
</g>
<g
   id="g18"
   transform="translate(0,-198.92001)">
</g>
<g
   id="g20"
   transform="translate(0,-198.92001)">
</g>
<g
   id="g22"
   transform="translate(0,-198.92001)">
</g>
<g
   id="g24"
   transform="translate(0,-198.92001)">
</g>
<g
   id="g26"
   transform="translate(0,-198.92001)">
</g>
<g
   id="g28"
   transform="translate(0,-198.92001)">
</g>
<g
   id="g30"
   transform="translate(0,-198.92001)">
</g>
<g
   id="g32"
   transform="translate(0,-198.92001)">
</g>
<g
   id="g34"
   transform="translate(0,-198.92001)">
</g>
<g
   id="g36"
   transform="translate(0,-198.92001)">
</g>
<g
   id="g38"
   transform="translate(0,-198.92001)">
</g>
<g
   id="g40"
   transform="translate(0,-198.92001)">
</g>
<g
   id="g42"
   transform="translate(0,-198.92001)">
</g>
<g
   id="g44"
   transform="translate(0,-198.92001)">
</g>
<g
   id="g46"
   transform="translate(0,-198.92001)">
</g>
</svg>