<?xml version="1.0" encoding="UTF-8" standalone="no"?>
<!-- Generator: Adobe Illustrator 19.0.0, SVG Export Plug-In . SVG Version: 6.00 Build 0)  -->

<svg
   xmlns:dc="http://purl.org/dc/elements/1.1/"
   xmlns:cc="http://creativecommons.org/ns#"
   xmlns:rdf="http://www.w3.org/1999/02/22-rdf-syntax-ns#"
   xmlns:svg="http://www.w3.org/2000/svg"
   xmlns="http://www.w3.org/2000/svg"
   xmlns:sodipodi="http://sodipodi.sourceforge.net/DTD/sodipodi-0.dtd"
   xmlns:inkscape="http://www.inkscape.org/namespaces/inkscape"
   version="1.1"
   id="Layer_1"
   x="0px"
   y="0px"
   viewBox="0 0 128 128"
   xml:space="preserve"
   sodipodi:docname="avatar2.svg"
   width="128"
   height="128"
   inkscape:version="0.92.4 (5da689c313, 2019-01-14)"><metadata
   id="metadata63"><rdf:RDF><cc:Work
       rdf:about=""><dc:format>image/svg+xml</dc:format><dc:type
         rdf:resource="http://purl.org/dc/dcmitype/StillImage" /><dc:title></dc:title></cc:Work></rdf:RDF></metadata><defs
   id="defs61" /><sodipodi:namedview
   pagecolor="#ffffff"
   bordercolor="#666666"
   borderopacity="1"
   objecttolerance="10"
   gridtolerance="10"
   guidetolerance="10"
   inkscape:pageopacity="0"
   inkscape:pageshadow="2"
   inkscape:window-width="1920"
   inkscape:window-height="1017"
   id="namedview59"
   showgrid="false"
   inkscape:zoom="0.69096965"
   inkscape:cx="170.77451"
   inkscape:cy="170.77451"
   inkscape:window-x="1912"
   inkscape:window-y="-8"
   inkscape:window-maximized="1"
   inkscape:current-layer="Layer_1" />
<g
   id="XMLID_6_"
   transform="matrix(0.28107235,0,0,0.28107235,15.999869,16.00002)">
	<g
   id="XMLID_64_">
		<g
   id="XMLID_1143_">
			<path
   id="XMLID_1144_"
   style="fill:#f3d8b6"
   d="M 253.964,245.996 C 235.297,239.315 202.506,234.26 202.506,164.62 h -29.23 -5.002 -29.23 c 0,69.64 -32.791,74.695 -51.458,81.376 0,47.368 68.832,48.824 80.688,53.239 v 1.537 c 0,0 0.922,-0.188 2.501,-0.68 1.579,0.492 2.501,0.68 2.501,0.68 v -1.537 c 11.855,-4.415 80.688,-5.872 80.688,-53.239 z"
   inkscape:connector-curvature="0" />
		</g>
		<path
   id="XMLID_1145_"
   style="fill:#eec8a2"
   d="m 202.506,164.62 h -29.23 -2.501 v 135.471 c 1.579,0.492 2.501,0.68 2.501,0.68 v -1.537 c 11.856,-4.415 80.688,-5.871 80.688,-53.239 -18.667,-6.68 -51.458,-11.735 -51.458,-81.375 z"
   inkscape:connector-curvature="0" />
	</g>
	<g
   id="XMLID_60_">
		<g
   id="XMLID_1146_">
			<path
   id="XMLID_1147_"
   style="fill:#f3dbc4"
   d="m 170.777,186.782 c -27.454,0 -48.409,-23.119 -57.799,-40.456 -9.39,-17.337 -15.888,-77.445 4.34,-104.897 19.808,-26.883 53.459,-23.838 53.459,-23.838 0,0 33.649,-3.045 53.458,23.838 20.226,27.452 13.726,87.56 4.335,104.897 -9.392,17.337 -30.345,40.456 -57.793,40.456 z"
   inkscape:connector-curvature="0" />
		</g>
		<path
   id="XMLID_1148_"
   style="fill:#edceae"
   d="M 224.235,41.429 C 204.425,14.546 170.777,17.591 170.777,17.591 h -0.002 v 169.191 c 0.001,0 0.001,0 0.002,0 27.449,0 48.401,-23.119 57.794,-40.456 9.39,-17.337 15.89,-77.444 -4.336,-104.897 z"
   inkscape:connector-curvature="0" />
	</g>
	<g
   id="XMLID_53_">
		<path
   id="XMLID_1151_"
   style="fill:#a97c75"
   d="m 237.227,109.439 c -0.725,14.745 -22.425,29.324 -29.599,39.061 -16.801,22.803 -36.854,3.24 -36.854,3.24 0,0 -20.051,19.563 -36.854,-3.24 -7.173,-9.735 -28.871,-24.311 -29.596,-39.054 -1.19,20.863 11.665,42.273 16.381,50.979 7.973,14.719 26.764,34.348 50.072,34.348 23.304,0 42.094,-19.629 50.068,-34.348 4.716,-8.708 17.572,-30.121 16.382,-50.986 z"
   inkscape:connector-curvature="0" />
		<path
   id="XMLID_1154_"
   style="fill:#976f6a"
   d="m 237.227,109.439 c -0.725,14.744 -22.425,29.324 -29.599,39.061 -16.775,22.767 -36.79,3.302 -36.853,3.241 v 43.031 h 0.001 c 23.304,0 42.094,-19.628 50.068,-34.348 4.717,-8.707 17.573,-30.12 16.383,-50.985 z"
   inkscape:connector-curvature="0" />
	</g>
	<g
   id="XMLID_45_">
		<g
   id="XMLID_1155_">
			<path
   id="XMLID_50_"
   style="fill:#a0756f"
   d="m 206.114,25.918 c 0,0 -24.427,-32.813 -39.707,-24.598 -39.045,20.991 -44.219,18.365 -52.979,21.408 -21.241,7.378 -21.798,5.405 -19.122,21.776 8.879,54.319 -0.557,79.337 15.961,59.147 16.518,-20.19 22.025,-15.423 64.073,-20.012 42.048,-4.589 15.256,-23.363 37.28,-8.18 22.024,15.183 24.919,42.732 28.589,42.732 3.671,0 11.84,-52.59 6.283,-68.911 C 234.63,14.439 206.114,25.918 206.114,25.918 Z"
   inkscape:connector-curvature="0" />
		</g>
		<path
   id="XMLID_1159_"
   style="fill:#8c6762"
   d="M 246.492,49.281 C 234.63,14.439 206.114,25.919 206.114,25.919 c 0,0 -20.189,-27.116 -35.339,-25.874 v 83.97 c 1.16,-0.118 2.344,-0.242 3.564,-0.375 42.047,-4.588 15.256,-23.363 37.28,-8.18 22.025,15.184 24.919,42.732 28.589,42.732 3.67,0 11.841,-52.589 6.284,-68.911 z"
   inkscape:connector-curvature="0" />
	</g>
	<g
   id="XMLID_42_">
		
			<ellipse
   id="XMLID_44_"
   transform="matrix(0.3543,-0.9351,0.9351,0.3543,39.067,294.718)"
   style="fill:#edceae"
   cx="232.948"
   cy="119.069"
   rx="17.187"
   ry="10.048" />
		
			<ellipse
   id="XMLID_43_"
   transform="matrix(0.3543,0.9351,-0.9351,0.3543,181.4726,-24.6648)"
   style="fill:#f3dbc4"
   cx="108.597"
   cy="119.078"
   rx="17.187"
   ry="10.048" />
	</g>
	<g
   id="XMLID_34_">
		<g
   id="XMLID_1160_">
			<path
   id="XMLID_1163_"
   style="fill:#545465"
   d="m 290.757,300.867 v 40.681 H 50.793 v -40.681 c 0,-30.431 17.377,-56.963 40.605,-70.913 6.043,-3.641 19.69,-7.43 26.844,-9.196 5.953,-1.488 53.438,22.729 53.438,22.729 0,0 48.674,-23.218 54.627,-21.729 7.154,1.766 17.802,4.554 23.844,8.196 23.229,13.95 40.606,40.482 40.606,70.913 z"
   inkscape:connector-curvature="0" />
		</g>
		<path
   id="XMLID_1166_"
   style="fill:#494857"
   d="m 250.152,229.954 c -6.043,-3.641 -16.69,-6.429 -23.844,-8.195 -5.953,-1.488 -54.627,21.729 -54.627,21.729 0,0 -0.321,-0.164 -0.906,-0.459 v 98.52 h 119.982 v -40.681 c 0,-30.432 -17.378,-56.964 -40.605,-70.914 z"
   inkscape:connector-curvature="0" />
	</g>
	<g
   id="XMLID_7_">
		<path
   id="XMLID_1167_"
   style="fill:#ffffff"
   d="m 218.942,216.981 -48.167,23.441 -48.167,-23.441 c -11.5,5.5 10.396,38.436 14.833,36.833 10.963,-3.96 33.334,-10.329 33.334,-10.329 0,0 22.371,6.369 33.334,10.329 4.437,1.603 26.333,-31.333 14.833,-36.833 z"
   inkscape:connector-curvature="0" />
		<path
   id="XMLID_1168_"
   style="fill:#dedde0"
   d="m 218.942,216.981 -48.167,23.441 v 3.063 c 0,0 22.371,6.369 33.334,10.329 4.437,1.603 26.333,-31.333 14.833,-36.833 z"
   inkscape:connector-curvature="0" />
	</g>
</g>
<g
   id="g28"
   transform="translate(0,-213.54901)">
</g>
<g
   id="g30"
   transform="translate(0,-213.54901)">
</g>
<g
   id="g32"
   transform="translate(0,-213.54901)">
</g>
<g
   id="g34"
   transform="translate(0,-213.54901)">
</g>
<g
   id="g36"
   transform="translate(0,-213.54901)">
</g>
<g
   id="g38"
   transform="translate(0,-213.54901)">
</g>
<g
   id="g40"
   transform="translate(0,-213.54901)">
</g>
<g
   id="g42"
   transform="translate(0,-213.54901)">
</g>
<g
   id="g44"
   transform="translate(0,-213.54901)">
</g>
<g
   id="g46"
   transform="translate(0,-213.54901)">
</g>
<g
   id="g48"
   transform="translate(0,-213.54901)">
</g>
<g
   id="g50"
   transform="translate(0,-213.54901)">
</g>
<g
   id="g52"
   transform="translate(0,-213.54901)">
</g>
<g
   id="g54"
   transform="translate(0,-213.54901)">
</g>
<g
   id="g56"
   transform="translate(0,-213.54901)">
</g>
</svg>