<?xml version="1.0" encoding="UTF-8" standalone="no"?>
<!-- Generator: Adobe Illustrator 19.0.0, SVG Export Plug-In . SVG Version: 6.00 Build 0)  -->

<svg
   xmlns:dc="http://purl.org/dc/elements/1.1/"
   xmlns:cc="http://creativecommons.org/ns#"
   xmlns:rdf="http://www.w3.org/1999/02/22-rdf-syntax-ns#"
   xmlns:svg="http://www.w3.org/2000/svg"
   xmlns="http://www.w3.org/2000/svg"
   xmlns:sodipodi="http://sodipodi.sourceforge.net/DTD/sodipodi-0.dtd"
   xmlns:inkscape="http://www.inkscape.org/namespaces/inkscape"
   version="1.1"
   id="Layer_1"
   x="0px"
   y="0px"
   viewBox="0 0 128 128"
   xml:space="preserve"
   sodipodi:docname="avatar12.svg"
   width="128"
   height="128"
   inkscape:version="0.92.4 (5da689c313, 2019-01-14)"><metadata
   id="metadata51"><rdf:RDF><cc:Work
       rdf:about=""><dc:format>image/svg+xml</dc:format><dc:type
         rdf:resource="http://purl.org/dc/dcmitype/StillImage" /><dc:title></dc:title></cc:Work></rdf:RDF></metadata><defs
   id="defs49" /><sodipodi:namedview
   pagecolor="#ffffff"
   bordercolor="#666666"
   borderopacity="1"
   objecttolerance="10"
   gridtolerance="10"
   guidetolerance="10"
   inkscape:pageopacity="0"
   inkscape:pageshadow="2"
   inkscape:window-width="1920"
   inkscape:window-height="1017"
   id="namedview47"
   showgrid="false"
   inkscape:zoom="0.70630345"
   inkscape:cx="167.067"
   inkscape:cy="167.067"
   inkscape:window-x="1912"
   inkscape:window-y="-8"
   inkscape:window-maximized="1"
   inkscape:current-layer="Layer_1" />
<g
   id="XMLID_895_"
   transform="matrix(0.28730988,0,0,0.28730988,16,16)">
	<g
   id="XMLID_896_">
		<path
   id="XMLID_929_"
   style="fill:#682234"
   d="M 266.554,283.677 C 292.944,259.618 277.708,163.208 277.708,141.27 277.708,59.796 234.962,0 167.067,0 99.172,0 56.427,59.796 56.427,141.269 c 0,21.938 -15.236,118.348 11.154,142.407 36.76,33.514 162.213,33.514 198.973,0.001 z"
   inkscape:connector-curvature="0" />
		<path
   id="XMLID_930_"
   style="fill:#581a2b"
   d="M 277.708,141.269 C 277.708,59.796 234.962,0 167.067,0 v 308.811 c 40.553,0 81.106,-8.378 99.486,-25.135 26.39,-24.059 11.155,-120.469 11.155,-142.407 z"
   inkscape:connector-curvature="0" />
	</g>
	<g
   id="XMLID_931_">
		<path
   id="XMLID_932_"
   style="fill:#ffeb99"
   d="m 246.444,241.372 c -6.043,-3.641 -12.69,-6.43 -19.844,-8.196 -4.824,-1.206 -17.048,-1.949 -25.018,-2.188 -8.189,8.543 -20.609,13.994 -34.515,13.994 -13.906,0 -24.326,-5.451 -32.515,-13.994 -7.969,0.239 -22.194,0.982 -27.018,2.188 -7.154,1.766 -13.802,4.554 -19.844,8.196 -23.228,13.95 -37.605,40.482 -37.605,70.913 v 21.849 h 233.963 v -21.849 c 10e-4,-30.43 -14.376,-56.962 -37.604,-70.913 z"
   inkscape:connector-curvature="0" />
		<path
   id="XMLID_933_"
   style="fill:#ffe477"
   d="m 246.444,241.372 c -6.043,-3.641 -12.69,-6.429 -19.844,-8.196 -4.824,-1.206 -17.048,-1.949 -25.018,-2.188 -8.189,8.543 -20.608,13.994 -34.515,13.994 v 89.152 h 116.982 v -21.849 c 0,-30.43 -14.377,-56.962 -37.605,-70.913 z"
   inkscape:connector-curvature="0" />
	</g>
	<g
   id="XMLID_934_">
		<g
   id="XMLID_935_">
			<path
   id="XMLID_936_"
   style="fill:#f3d8b6"
   d="m 192.356,176.138 h -23.998 -1.121 -0.338 -1.121 -23.998 c 0,42.803 -19.646,58.804 -28.776,64.673 0,0 45.615,67.027 52.775,69.941 h 2.581 c 7.16,-2.914 52.775,-69.941 52.775,-69.941 -9.133,-5.869 -28.779,-21.87 -28.779,-64.673 z"
   inkscape:connector-curvature="0" />
		</g>
		<path
   id="XMLID_937_"
   style="fill:#eec8a2"
   d="m 192.356,176.138 h -23.998 -1.121 -0.169 v 134.614 h 1.29 c 7.16,-2.914 52.775,-69.941 52.775,-69.941 -9.131,-5.869 -28.777,-21.87 -28.777,-64.673 z"
   inkscape:connector-curvature="0" />
	</g>
	<g
   id="XMLID_938_">
		<path
   id="XMLID_939_"
   style="fill:#f3dbc4"
   d="m 230.727,120.846 c -0.043,-0.002 -0.08,-0.005 -0.124,-0.007 -0.243,-0.015 -0.509,-0.031 -0.801,-0.051 -0.046,-0.003 -0.097,-0.006 -0.144,-0.01 -0.263,-0.018 -0.544,-0.037 -0.843,-0.059 -0.061,-0.004 -0.119,-0.009 -0.182,-0.013 -0.36,-0.027 -0.738,-0.055 -1.146,-0.088 -0.01,-10e-4 -0.022,-0.002 -0.032,-0.003 -0.385,-0.031 -0.796,-0.065 -1.222,-0.102 -0.083,-0.007 -0.165,-0.015 -0.249,-0.022 -0.906,-0.08 -1.894,-0.173 -2.96,-0.282 -0.086,-0.009 -0.174,-0.018 -0.261,-0.027 -0.509,-0.053 -1.031,-0.109 -1.573,-0.169 -0.036,-0.004 -0.07,-0.007 -0.107,-0.012 -0.586,-0.065 -1.191,-0.135 -1.812,-0.21 -0.077,-0.009 -0.155,-0.019 -0.232,-0.028 -0.563,-0.068 -1.14,-0.141 -1.73,-0.217 -0.08,-0.01 -0.158,-0.02 -0.239,-0.03 -0.663,-0.086 -1.341,-0.177 -2.035,-0.274 -0.035,-0.005 -0.07,-0.01 -0.105,-0.015 -0.647,-0.09 -1.308,-0.187 -1.979,-0.287 -0.108,-0.016 -0.215,-0.032 -0.323,-0.048 -1.43,-0.215 -2.911,-0.453 -4.436,-0.714 -0.118,-0.021 -0.236,-0.041 -0.354,-0.061 -1.539,-0.267 -3.119,-0.558 -4.735,-0.875 -0.107,-0.021 -0.215,-0.043 -0.323,-0.064 -0.758,-0.15 -1.521,-0.306 -2.292,-0.468 -0.06,-0.013 -0.12,-0.025 -0.18,-0.038 -0.838,-0.177 -1.683,-0.362 -2.534,-0.554 -0.078,-0.018 -0.157,-0.036 -0.235,-0.054 -0.771,-0.175 -1.547,-0.357 -2.328,-0.544 -0.114,-0.027 -0.227,-0.054 -0.341,-0.082 -0.863,-0.209 -1.73,-0.425 -2.601,-0.65 -0.011,-0.002 -0.021,-0.005 -0.032,-0.008 -0.833,-0.215 -1.67,-0.44 -2.509,-0.67 -0.136,-0.038 -0.273,-0.075 -0.409,-0.113 -1.72,-0.478 -3.447,-0.987 -5.175,-1.532 -0.14,-0.044 -0.279,-0.088 -0.419,-0.133 -0.836,-0.266 -1.671,-0.539 -2.506,-0.821 -0.023,-0.008 -0.045,-0.015 -0.068,-0.022 -0.872,-0.296 -1.742,-0.602 -2.61,-0.916 -0.127,-0.046 -0.253,-0.093 -0.379,-0.139 -0.769,-0.281 -1.536,-0.569 -2.301,-0.866 -0.106,-0.041 -0.213,-0.082 -0.319,-0.123 -0.855,-0.334 -1.707,-0.678 -2.553,-1.032 -0.085,-0.036 -0.169,-0.072 -0.254,-0.108 -0.758,-0.319 -1.51,-0.646 -2.259,-0.981 -0.141,-0.063 -0.283,-0.125 -0.424,-0.189 -0.835,-0.377 -1.664,-0.764 -2.485,-1.162 -10.905,-5.293 -20.503,-12.44 -26.124,-22.086 -1.621,-2.782 -3.112,-5.444 -4.497,-8.014 -6.833,14.833 -21.688,32.746 -33.944,40.883 0.871,21.986 4.359,41.811 8.409,49.287 9.043,16.694 29.221,38.957 55.657,38.957 26.431,0 46.607,-22.262 55.652,-38.957 3.796,-7.008 7.1,-24.866 8.217,-45.184 -0.07,-0.005 -0.132,-0.009 -0.21,-0.013 z"
   inkscape:connector-curvature="0" />
		<path
   id="XMLID_940_"
   style="fill:#edceae"
   d="m 230.727,120.846 c -0.043,-0.002 -0.08,-0.005 -0.124,-0.007 -0.243,-0.015 -0.509,-0.031 -0.801,-0.051 -0.046,-0.003 -0.097,-0.006 -0.144,-0.01 -0.263,-0.018 -0.544,-0.037 -0.843,-0.059 -0.061,-0.004 -0.119,-0.009 -0.182,-0.013 -0.36,-0.027 -0.738,-0.055 -1.146,-0.088 -0.01,-10e-4 -0.022,-0.002 -0.032,-0.003 -0.385,-0.031 -0.796,-0.065 -1.222,-0.102 -0.083,-0.007 -0.165,-0.015 -0.249,-0.022 -0.906,-0.08 -1.894,-0.173 -2.96,-0.282 -0.086,-0.009 -0.174,-0.018 -0.261,-0.027 -0.509,-0.053 -1.031,-0.109 -1.573,-0.169 -0.036,-0.004 -0.07,-0.007 -0.107,-0.012 -0.586,-0.065 -1.191,-0.135 -1.812,-0.21 -0.077,-0.009 -0.155,-0.019 -0.232,-0.028 -0.563,-0.068 -1.14,-0.141 -1.73,-0.217 -0.08,-0.01 -0.158,-0.02 -0.239,-0.03 -0.663,-0.086 -1.341,-0.177 -2.035,-0.274 -0.035,-0.005 -0.07,-0.01 -0.105,-0.015 -0.647,-0.09 -1.308,-0.187 -1.979,-0.287 -0.108,-0.016 -0.215,-0.032 -0.323,-0.048 -1.43,-0.215 -2.911,-0.453 -4.436,-0.714 -0.118,-0.021 -0.236,-0.041 -0.354,-0.061 -1.539,-0.267 -3.119,-0.558 -4.735,-0.875 -0.107,-0.021 -0.215,-0.043 -0.323,-0.064 -0.758,-0.15 -1.521,-0.306 -2.292,-0.468 -0.06,-0.013 -0.12,-0.025 -0.18,-0.038 -0.838,-0.177 -1.683,-0.362 -2.534,-0.554 -0.078,-0.018 -0.157,-0.036 -0.235,-0.054 -0.771,-0.175 -1.547,-0.357 -2.328,-0.544 -0.114,-0.027 -0.227,-0.054 -0.341,-0.082 -0.863,-0.209 -1.73,-0.425 -2.601,-0.65 -0.011,-0.002 -0.021,-0.005 -0.032,-0.008 -0.833,-0.215 -1.67,-0.44 -2.509,-0.67 -0.136,-0.038 -0.273,-0.075 -0.409,-0.113 -1.72,-0.478 -3.447,-0.987 -5.175,-1.532 -0.14,-0.044 -0.279,-0.088 -0.419,-0.133 -0.836,-0.266 -1.671,-0.539 -2.506,-0.821 -0.023,-0.008 -0.045,-0.015 -0.068,-0.022 -0.872,-0.296 -1.742,-0.602 -2.61,-0.916 -0.127,-0.046 -0.253,-0.093 -0.379,-0.139 -0.769,-0.281 -1.536,-0.569 -2.301,-0.866 -0.106,-0.041 -0.213,-0.082 -0.319,-0.123 -0.855,-0.334 -1.707,-0.678 -2.553,-1.032 -0.085,-0.036 -0.169,-0.072 -0.254,-0.108 -0.758,-0.319 -1.51,-0.646 -2.259,-0.981 -0.141,-0.063 -0.283,-0.125 -0.424,-0.189 -0.835,-0.377 -1.664,-0.764 -2.485,-1.162 -0.168,-0.082 -0.333,-0.167 -0.5,-0.25 v 99.276 c 0,0 0.001,0 0.002,0 26.431,0 46.607,-22.262 55.652,-38.957 3.796,-7.008 7.101,-24.866 8.218,-45.184 -0.072,-0.004 -0.134,-0.008 -0.212,-0.012 z"
   inkscape:connector-curvature="0" />
	</g>
</g>
<g
   id="g16"
   transform="translate(0,-206.134)">
</g>
<g
   id="g18"
   transform="translate(0,-206.134)">
</g>
<g
   id="g20"
   transform="translate(0,-206.134)">
</g>
<g
   id="g22"
   transform="translate(0,-206.134)">
</g>
<g
   id="g24"
   transform="translate(0,-206.134)">
</g>
<g
   id="g26"
   transform="translate(0,-206.134)">
</g>
<g
   id="g28"
   transform="translate(0,-206.134)">
</g>
<g
   id="g30"
   transform="translate(0,-206.134)">
</g>
<g
   id="g32"
   transform="translate(0,-206.134)">
</g>
<g
   id="g34"
   transform="translate(0,-206.134)">
</g>
<g
   id="g36"
   transform="translate(0,-206.134)">
</g>
<g
   id="g38"
   transform="translate(0,-206.134)">
</g>
<g
   id="g40"
   transform="translate(0,-206.134)">
</g>
<g
   id="g42"
   transform="translate(0,-206.134)">
</g>
<g
   id="g44"
   transform="translate(0,-206.134)">
</g>
</svg>