<?xml version="1.0" encoding="UTF-8" standalone="no"?>
<!-- Generator: Adobe Illustrator 19.0.0, SVG Export Plug-In . SVG Version: 6.00 Build 0)  -->

<svg
   xmlns:dc="http://purl.org/dc/elements/1.1/"
   xmlns:cc="http://creativecommons.org/ns#"
   xmlns:rdf="http://www.w3.org/1999/02/22-rdf-syntax-ns#"
   xmlns:svg="http://www.w3.org/2000/svg"
   xmlns="http://www.w3.org/2000/svg"
   xmlns:sodipodi="http://sodipodi.sourceforge.net/DTD/sodipodi-0.dtd"
   xmlns:inkscape="http://www.inkscape.org/namespaces/inkscape"
   version="1.1"
   id="Layer_1"
   x="0px"
   y="0px"
   viewBox="0 0 128 128"
   xml:space="preserve"
   sodipodi:docname="avatar3.svg"
   width="128"
   height="128"
   inkscape:version="0.92.4 (5da689c313, 2019-01-14)"><metadata
   id="metadata58"><rdf:RDF><cc:Work
       rdf:about=""><dc:format>image/svg+xml</dc:format><dc:type
         rdf:resource="http://purl.org/dc/dcmitype/StillImage" /><dc:title></dc:title></cc:Work></rdf:RDF></metadata><defs
   id="defs56" /><sodipodi:namedview
   pagecolor="#ffffff"
   bordercolor="#666666"
   borderopacity="1"
   objecttolerance="10"
   gridtolerance="10"
   guidetolerance="10"
   inkscape:pageopacity="0"
   inkscape:pageshadow="2"
   inkscape:window-width="1920"
   inkscape:window-height="1017"
   id="namedview54"
   showgrid="false"
   inkscape:zoom="0.68071754"
   inkscape:cx="-9.5487477"
   inkscape:cy="173.3465"
   inkscape:window-x="1912"
   inkscape:window-y="-8"
   inkscape:window-maximized="1"
   inkscape:current-layer="Layer_1" />
<g
   id="XMLID_31_"
   transform="matrix(0.27690204,0,0,0.27690204,16.000001,16.000001)">
	<g
   id="XMLID_48_">
		<path
   id="XMLID_52_"
   style="fill:#e1a98c"
   d="M 272.633,283.677 C 299.023,259.618 283.787,163.208 283.787,141.27 283.787,59.796 241.041,0 173.147,0 105.253,0 62.507,59.796 62.507,141.269 c 0,21.938 -15.236,118.348 11.154,142.407 36.759,33.514 162.212,33.514 198.972,0.001 z"
   inkscape:connector-curvature="0" />
		<path
   id="XMLID_49_"
   style="fill:#d2987b"
   d="M 283.787,141.269 C 283.787,59.796 241.041,0 173.147,0 v 308.811 c 40.553,0 81.106,-8.378 99.486,-25.135 26.389,-24.059 11.154,-120.469 11.154,-142.407 z"
   inkscape:connector-curvature="0" />
	</g>
	<g
   id="XMLID_45_">
		<path
   id="XMLID_237_"
   style="fill:#f3d8b6"
   d="m 216.536,271.577 c 0,0 -14.458,-18.417 -14.458,-81.376 h -26.23 -5.002 -26.23 c 0,62.959 -14.458,81.376 -14.458,81.376 0,47.368 28.832,48.824 40.688,53.239 v 1.537 c 0,0 0.922,-0.188 2.501,-0.68 1.579,0.492 2.501,0.68 2.501,0.68 v -1.537 c 11.856,-4.415 40.688,-5.871 40.688,-53.239 z"
   inkscape:connector-curvature="0" />
		<path
   id="XMLID_238_"
   style="fill:#eec8a2"
   d="m 202.078,190.201 h -26.23 l -2.667,-0.024 v 135.472 c 1.579,0.492 2.667,0.704 2.667,0.704 v -1.537 c 11.856,-4.414 40.688,-5.871 40.688,-53.239 0,0 -14.458,-18.417 -14.458,-81.376 z"
   inkscape:connector-curvature="0" />
	</g>
	<g
   id="XMLID_42_">
		<path
   id="XMLID_44_"
   style="fill:#455465"
   d="m 214.035,224.629 c 0,0 3.56,81.376 -40.688,81.376 -38.653,0 -40.688,-81.376 -40.688,-81.376 -44.943,0 -76.29,36.433 -76.29,81.376 v 40.688 h 233.955 v -40.688 c 10e-4,-44.942 -31.346,-81.376 -76.289,-81.376 z"
   inkscape:connector-curvature="0" />
		<path
   id="XMLID_43_"
   style="fill:#3a4755"
   d="m 214.035,224.629 c 0,0 3.56,81.376 -40.688,81.376 -0.068,0 -0.133,-0.006 -0.201,-0.007 v 40.694 h 117.178 v -40.688 c 10e-4,-44.941 -31.346,-81.375 -76.289,-81.375 z"
   inkscape:connector-curvature="0" />
	</g>
	<g
   id="XMLID_39_">
		<path
   id="XMLID_41_"
   style="fill:#f3dbc4"
   d="m 147.724,83.698 c -1.621,-2.782 -3.112,-5.444 -4.497,-8.014 -6.846,14.86 -21.742,32.812 -34.011,40.928 0.742,22.723 4.312,43.465 8.476,51.153 9.042,16.694 29.221,38.956 55.657,38.956 26.431,0 46.607,-22.262 55.652,-38.956 3.914,-7.227 7.305,-25.989 8.314,-47.089 -9.499,-0.538 -71.089,-5.224 -89.591,-36.978 z"
   inkscape:connector-curvature="0" />
		<path
   id="XMLID_40_"
   style="fill:#edceae"
   d="m 173.147,105.442 v 101.274 c 0.068,0 0.134,0.005 0.202,0.005 26.431,0 46.607,-22.262 55.652,-38.956 3.914,-7.227 7.305,-25.989 8.314,-47.089 -6.675,-0.378 -39.075,-2.805 -64.168,-15.234 z"
   inkscape:connector-curvature="0" />
	</g>
	<g
   id="XMLID_35_">
		<path
   id="XMLID_38_"
   style="fill:#722234"
   d="m 249.891,80.05 h -1.539 c -0.484,-2.237 -1.054,-4.442 -1.729,-6.6 0.042,-0.082 0.098,-0.153 0.136,-0.238 0.6,-1.334 0.643,-2.822 0.124,-4.189 -11.38,-29.909 -40.579,-50.004 -72.656,-50.004 -0.295,0 -0.586,0.017 -0.881,0.021 -0.295,-0.003 -0.586,-0.021 -0.881,-0.021 -32.079,0 -61.276,20.095 -72.651,50 -0.522,1.365 -0.48,2.852 0.118,4.187 0.039,0.086 0.096,0.159 0.139,0.243 -0.675,2.159 -1.244,4.364 -1.728,6.601 h -1.539 c -13.904,0 -25.176,11.271 -25.176,25.176 v 20.852 c 0,13.904 11.271,25.176 25.176,25.176 h 3.738 c 0.223,0.188 0.458,0.385 0.685,0.576 h -2.595 c 0.81,0.035 1.634,0.058 2.432,0.058 0.08,0 0.149,-0.003 0.227,-0.003 13.667,11.496 35.863,28.462 48.467,33.089 2.372,4.216 8.315,6.968 15.329,6.968 9.211,0 16.427,-4.817 16.427,-10.966 0,-6.149 -7.216,-10.967 -16.427,-10.967 -5.14,0 -9.901,1.557 -12.95,4.153 -8.187,-3.214 -32.832,-25.575 -39.822,-31.588 V 80.05 h -2.714 c 7.3,-28.473 33.046,-49.654 63.746,-50.054 30.7,0.4 56.446,21.581 63.746,50.054 h -2.713 v 71.204 h 15.512 c 13.904,0 25.176,-11.271 25.176,-25.176 V 105.226 C 275.067,91.322 263.795,80.05 249.891,80.05 Z"
   inkscape:connector-curvature="0" />
		<g
   id="XMLID_36_">
			<path
   id="XMLID_240_"
   style="fill:#521627"
   d="m 249.891,80.05 h -1.539 c -0.484,-2.237 -1.054,-4.442 -1.729,-6.6 0.042,-0.082 0.098,-0.153 0.136,-0.238 0.6,-1.334 0.643,-2.822 0.124,-4.189 -11.38,-29.909 -40.579,-50.004 -72.656,-50.004 -0.295,0 -0.586,0.017 -0.881,0.021 -0.067,-10e-4 -0.133,-0.003 -0.2,-0.005 v 10.969 c 0.067,-0.001 0.133,-0.006 0.2,-0.007 30.7,0.4 56.446,21.581 63.746,50.054 h -2.713 v 71.204 h 15.512 c 13.904,0 25.176,-11.271 25.176,-25.176 v -20.852 c 0,-13.905 -11.272,-25.177 -25.176,-25.177 z"
   inkscape:connector-curvature="0" />
			<path
   id="XMLID_241_"
   style="fill:#521627"
   d="m 173.147,171.382 v 19.188 c 5.029,-1.854 8.368,-5.414 8.368,-9.594 0,-4.18 -3.34,-7.74 -8.368,-9.594 z"
   inkscape:connector-curvature="0" />
		</g>
	</g>
	<g
   id="XMLID_32_">
		<path
   id="XMLID_34_"
   style="fill:#ffffff"
   d="m 202.69,214.696 2.124,38.557 -31.633,32.346 -31.299,-32.346 2.124,-38.557 c -27.652,16.279 -46.747,30.277 -46.747,30.277 l 24.99,26.65 29.11,31.06 21.823,23.684 22.156,-23.684 29.11,-31.06 24.99,-26.65 c -10e-4,0 -19.096,-13.998 -46.748,-30.277 z"
   inkscape:connector-curvature="0" />
		<path
   id="XMLID_33_"
   style="fill:#dedde0"
   d="m 202.69,214.696 2.124,38.557 -31.633,32.346 v 40.768 l 22.156,-23.684 29.11,-31.06 24.99,-26.65 c 0,0 -19.095,-13.998 -46.747,-30.277 z"
   inkscape:connector-curvature="0" />
	</g>
</g>
<g
   id="g23"
   transform="translate(0,-218.69299)">
</g>
<g
   id="g25"
   transform="translate(0,-218.69299)">
</g>
<g
   id="g27"
   transform="translate(0,-218.69299)">
</g>
<g
   id="g29"
   transform="translate(0,-218.69299)">
</g>
<g
   id="g31"
   transform="translate(0,-218.69299)">
</g>
<g
   id="g33"
   transform="translate(0,-218.69299)">
</g>
<g
   id="g35"
   transform="translate(0,-218.69299)">
</g>
<g
   id="g37"
   transform="translate(0,-218.69299)">
</g>
<g
   id="g39"
   transform="translate(0,-218.69299)">
</g>
<g
   id="g41"
   transform="translate(0,-218.69299)">
</g>
<g
   id="g43"
   transform="translate(0,-218.69299)">
</g>
<g
   id="g45"
   transform="translate(0,-218.69299)">
</g>
<g
   id="g47"
   transform="translate(0,-218.69299)">
</g>
<g
   id="g49"
   transform="translate(0,-218.69299)">
</g>
<g
   id="g51"
   transform="translate(0,-218.69299)">
</g>
</svg>