<?xml version="1.0" encoding="UTF-8" standalone="no"?>
<!-- Generator: Adobe Illustrator 19.0.0, SVG Export Plug-In . SVG Version: 6.00 Build 0)  -->

<svg
   xmlns:dc="http://purl.org/dc/elements/1.1/"
   xmlns:cc="http://creativecommons.org/ns#"
   xmlns:rdf="http://www.w3.org/1999/02/22-rdf-syntax-ns#"
   xmlns:svg="http://www.w3.org/2000/svg"
   xmlns="http://www.w3.org/2000/svg"
   xmlns:sodipodi="http://sodipodi.sourceforge.net/DTD/sodipodi-0.dtd"
   xmlns:inkscape="http://www.inkscape.org/namespaces/inkscape"
   version="1.1"
   id="Layer_1"
   x="0px"
   y="0px"
   viewBox="0 0 128 128"
   xml:space="preserve"
   sodipodi:docname="avatar6.svg"
   width="128"
   height="128"
   inkscape:version="0.92.4 (5da689c313, 2019-01-14)"><metadata
   id="metadata54"><rdf:RDF><cc:Work
       rdf:about=""><dc:format>image/svg+xml</dc:format><dc:type
         rdf:resource="http://purl.org/dc/dcmitype/StillImage" /><dc:title></dc:title></cc:Work></rdf:RDF></metadata><defs
   id="defs52" /><sodipodi:namedview
   pagecolor="#ffffff"
   bordercolor="#666666"
   borderopacity="1"
   objecttolerance="10"
   gridtolerance="10"
   guidetolerance="10"
   inkscape:pageopacity="0"
   inkscape:pageshadow="2"
   inkscape:window-width="1920"
   inkscape:window-height="1017"
   id="namedview50"
   showgrid="false"
   inkscape:zoom="0.6650154"
   inkscape:cx="177.4395"
   inkscape:cy="177.4395"
   inkscape:window-x="1912"
   inkscape:window-y="-8"
   inkscape:window-maximized="1"
   inkscape:current-layer="Layer_1" />
<g
   id="XMLID_37_"
   transform="matrix(0.27051474,0,0,0.27051474,16,16)">
	<g
   id="XMLID_51_">
		<path
   id="XMLID_55_"
   style="fill:#545465"
   d="m 288.076,141.27 c 0,56.17 -43.91,89.12 -43.91,89.12 l -66.73,-56.72 -66.72,56.72 c 0,0 -43.92,-34.617 -43.92,-89.12 0,-46.4 13.86,-85.76 38.34,-111.06 4.62,-4.78 9.62,-9.05 14.97,-12.77 16.09,-11.2 35.4,-17.44 57.33,-17.44 21.94,0 41.24,6.24 57.33,17.44 4.83,3.35 9.37,7.16 13.6,11.37 25.33,25.24 39.71,65.21 39.71,112.46 z"
   inkscape:connector-curvature="0" />
		<path
   id="XMLID_52_"
   style="fill:#494857"
   d="m 248.366,28.81 c -4.23,-4.21 -8.77,-8.02 -13.6,-11.37 C 218.677,6.24 199.378,0 177.439,0 v 173.672 l 66.727,56.718 c 0,0 43.91,-32.95 43.91,-89.12 0,-47.25 -14.38,-87.22 -39.71,-112.46 z"
   inkscape:connector-curvature="0" />
	</g>
	<g
   id="XMLID_48_">
		<path
   id="XMLID_50_"
   style="fill:#f3d8b6"
   d="m 220.628,263.334 c 0,0 -14.458,-18.417 -14.458,-81.376 h -26.23 -5.002 -26.23 c 0,62.959 -14.458,81.376 -14.458,81.376 0,47.368 28.832,48.824 40.688,53.239 v 1.537 c 0,0 0.922,-0.188 2.501,-0.68 1.579,0.492 2.501,0.68 2.501,0.68 v -1.537 c 11.856,-4.415 40.688,-5.871 40.688,-53.239 z"
   inkscape:connector-curvature="0" />
		<path
   id="XMLID_49_"
   style="fill:#eec8a2"
   d="m 206.17,181.958 h -26.23 -2.501 V 317.43 c 1.579,0.492 2.501,0.68 2.501,0.68 v -1.537 c 11.856,-4.414 40.688,-5.871 40.688,-53.239 0,0 -14.458,-18.417 -14.458,-81.376 z"
   inkscape:connector-curvature="0" />
	</g>
	<g
   id="XMLID_45_">
		<path
   id="XMLID_47_"
   style="fill:#682234"
   d="m 294.421,314.198 v 40.681 H 60.458 v -40.681 c 0,-30.431 14.377,-56.963 37.605,-70.913 6.043,-3.641 12.69,-6.43 19.844,-8.196 5.953,-1.488 12.254,-2.272 18.842,-2.272 l 40.691,24.002 40.691,-24.002 c 6.588,0 12.889,0.784 18.842,2.272 7.154,1.766 13.802,4.554 19.844,8.196 23.227,13.95 37.604,40.482 37.604,70.913 z"
   inkscape:connector-curvature="0" />
		<path
   id="XMLID_46_"
   style="fill:#521627"
   d="m 256.816,243.285 c -6.042,-3.641 -12.69,-6.43 -19.844,-8.196 -5.953,-1.488 -12.254,-2.272 -18.842,-2.272 l -40.691,24.002 v 0 98.06 h 116.982 v -40.681 c 0,-30.431 -14.377,-56.963 -37.605,-70.913 z"
   inkscape:connector-curvature="0" />
	</g>
	<g
   id="XMLID_42_">
		<path
   id="XMLID_44_"
   style="fill:#f3dbc4"
   d="m 230.186,115.21 -22.73,-22.72 -16,16 -16,-16 -22.72,22.72 h -39.477 c 0.623,23.341 4.264,44.877 8.525,52.744 9.042,16.694 29.221,38.957 55.657,38.957 26.431,0 46.607,-22.262 55.652,-38.957 4.261,-7.867 7.903,-29.403 8.526,-52.744 0,0 -11.433,0 -11.433,0 z"
   inkscape:connector-curvature="0" />
		<path
   id="XMLID_43_"
   style="fill:#edceae"
   d="m 230.186,115.21 -22.73,-22.72 -16,16 -14.017,-14.017 V 206.91 c 0,0 0.001,0 0.002,0 26.431,0 46.607,-22.262 55.652,-38.957 4.261,-7.867 7.903,-29.403 8.526,-52.744 z"
   inkscape:connector-curvature="0" />
	</g>
	<path
   id="XMLID_41_"
   style="fill:#dedde0"
   d="m 233.204,335.879 h -10.333 c -9.205,0 -16.667,-7.462 -16.667,-16.667 v -22 h 43.667 v 22 c 0,9.205 -7.462,16.667 -16.667,16.667 z"
   inkscape:connector-curvature="0" />
	<g
   id="XMLID_38_">
		<path
   id="XMLID_40_"
   style="fill:#ffffff"
   d="m 223.324,234.118 c -3.59,-2.949 -8.721,-4.162 -14.417,-3.806 l -31.468,26.507 -31.468,-26.507 c -5.697,-0.356 -10.827,0.857 -14.417,3.806 -8.592,7.058 -5.109,31.957 7.779,42.543 12.507,10.273 29.273,-3.09 38.106,-9.371 8.833,6.281 25.6,19.644 38.106,9.371 12.889,-10.586 16.371,-35.486 7.779,-42.543 z"
   inkscape:connector-curvature="0" />
		<path
   id="XMLID_39_"
   style="fill:#dedde0"
   d="m 223.324,234.118 c -3.59,-2.949 -8.721,-4.162 -14.417,-3.806 l -31.468,26.507 v 10.472 c 8.833,6.281 25.6,19.644 38.106,9.371 12.889,-10.587 16.371,-35.487 7.779,-42.544 z"
   inkscape:connector-curvature="0" />
	</g>
</g>
<g
   id="g19"
   transform="translate(0,-226.879)">
</g>
<g
   id="g21"
   transform="translate(0,-226.879)">
</g>
<g
   id="g23"
   transform="translate(0,-226.879)">
</g>
<g
   id="g25"
   transform="translate(0,-226.879)">
</g>
<g
   id="g27"
   transform="translate(0,-226.879)">
</g>
<g
   id="g29"
   transform="translate(0,-226.879)">
</g>
<g
   id="g31"
   transform="translate(0,-226.879)">
</g>
<g
   id="g33"
   transform="translate(0,-226.879)">
</g>
<g
   id="g35"
   transform="translate(0,-226.879)">
</g>
<g
   id="g37"
   transform="translate(0,-226.879)">
</g>
<g
   id="g39"
   transform="translate(0,-226.879)">
</g>
<g
   id="g41"
   transform="translate(0,-226.879)">
</g>
<g
   id="g43"
   transform="translate(0,-226.879)">
</g>
<g
   id="g45"
   transform="translate(0,-226.879)">
</g>
<g
   id="g47"
   transform="translate(0,-226.879)">
</g>
</svg>