<?xml version="1.0" encoding="UTF-8" standalone="no"?>
<!-- Generator: Adobe Illustrator 19.0.0, SVG Export Plug-In . SVG Version: 6.00 Build 0)  -->

<svg
   xmlns:dc="http://purl.org/dc/elements/1.1/"
   xmlns:cc="http://creativecommons.org/ns#"
   xmlns:rdf="http://www.w3.org/1999/02/22-rdf-syntax-ns#"
   xmlns:svg="http://www.w3.org/2000/svg"
   xmlns="http://www.w3.org/2000/svg"
   xmlns:sodipodi="http://sodipodi.sourceforge.net/DTD/sodipodi-0.dtd"
   xmlns:inkscape="http://www.inkscape.org/namespaces/inkscape"
   version="1.1"
   id="Layer_1"
   x="0px"
   y="0px"
   viewBox="0 0 128 128"
   xml:space="preserve"
   sodipodi:docname="avatar1.svg"
   width="128"
   height="128"
   inkscape:version="0.92.4 (5da689c313, 2019-01-14)"><metadata
   id="metadata76"><rdf:RDF><cc:Work
       rdf:about=""><dc:format>image/svg+xml</dc:format><dc:type
         rdf:resource="http://purl.org/dc/dcmitype/StillImage" /><dc:title></dc:title></cc:Work></rdf:RDF></metadata><defs
   id="defs74" /><sodipodi:namedview
   pagecolor="#ffffff"
   bordercolor="#666666"
   borderopacity="1"
   objecttolerance="10"
   gridtolerance="10"
   guidetolerance="10"
   inkscape:pageopacity="0"
   inkscape:pageshadow="2"
   inkscape:window-width="1920"
   inkscape:window-height="1017"
   id="namedview72"
   showgrid="false"
   inkscape:zoom="3.2551724"
   inkscape:cx="100.22216"
   inkscape:cy="84.974518"
   inkscape:window-x="1912"
   inkscape:window-y="-8"
   inkscape:window-maximized="1"
   inkscape:current-layer="men_5" />
<g
   id="men_5"
   transform="translate(0,-17)">
	
	<g
   id="g38"
   transform="matrix(0.81129732,0,0,0.81129732,5.1813498,11.361889)">
		<g
   id="g28">
			<g
   id="g26">
				<g
   id="g24">
					<path
   style="fill:#f1c9a5"
   d="m 109.374,115.394 c -4.964,-9.396 -36.875,-15.292 -36.875,-15.292 0,0 -31.91,5.896 -36.874,15.292 C 31.957,128.433 28.888,145 28.888,145 h 43.611 43.612 c 10e-4,0 -2.071,-17.764 -6.737,-29.606 z"
   id="path4"
   inkscape:connector-curvature="0" />
					<path
   style="fill:#e4b692"
   d="m 72.499,100.102 c 0,0 31.911,5.896 36.875,15.292 4.665,11.842 6.737,29.606 6.737,29.606 H 72.499 Z"
   id="path6"
   inkscape:connector-curvature="0" />
					<rect
   x="63.813"
   y="81"
   style="fill:#f1c9a5"
   width="17.374001"
   height="29.077"
   id="rect8" />
					<rect
   x="72.499001"
   y="81"
   style="fill:#e4b692"
   width="8.6879997"
   height="29.077"
   id="rect10" />
					<path
   style="opacity:0.1;fill:#ddac8c;enable-background:new"
   d="m 63.813,94.474 c 1.563,4.485 7.868,7.057 12.499,7.057 1.676,0 3.306,-0.281 4.875,-0.795 V 81 H 63.813 Z"
   id="path12"
   inkscape:connector-curvature="0" />
					<path
   style="fill:#f1c9a5"
   d="m 94.837,62.653 c 0,-18.162 -10.001,-28.489 -22.338,-28.489 -12.336,0 -22.337,10.327 -22.337,28.489 0,24.428 10.001,32.886 22.337,32.886 12.338,0 22.338,-9.476 22.338,-32.886 z"
   id="path14"
   inkscape:connector-curvature="0" />
					<path
   style="fill:#f1c9a5"
   d="m 94.837,62.653 c 0,-18.162 -10.001,-28.489 -22.338,-28.489 -12.336,0 -22.337,10.327 -22.337,28.489 0,24.428 10.001,32.886 22.337,32.886 12.338,0 22.338,-9.476 22.338,-32.886 z"
   id="path16"
   inkscape:connector-curvature="0" />
					<path
   style="fill:#f1c9a5"
   d="m 45.161,67.031 c -0.684,-4.957 2.046,-9.318 6.092,-9.74 4.053,-0.422 7.888,3.259 8.567,8.216 0.683,4.953 -2.053,9.315 -6.1,9.739 -4.049,0.419 -7.88,-3.258 -8.559,-8.215 z"
   id="path18"
   inkscape:connector-curvature="0" />
					<path
   style="fill:#e4b692"
   d="m 94.837,62.653 c 0,-18.162 -10.001,-28.489 -22.338,-28.489 v 61.375 c 12.338,0 22.338,-9.476 22.338,-32.886 z"
   id="path20"
   inkscape:connector-curvature="0" />
					<path
   style="fill:#102f41"
   d="m 109.374,115.394 c -3.181,-6.021 -17.418,-10.601 -27.242,-13.117 -0.382,4.99 -4.545,8.923 -9.633,8.923 -5.088,0 -9.25,-3.933 -9.632,-8.923 -9.824,2.516 -24.061,7.096 -27.242,13.117 C 31.957,128.433 28.888,145 28.888,145 h 43.611 43.612 c 10e-4,0 -2.071,-17.764 -6.737,-29.606 z"
   id="path22"
   inkscape:connector-curvature="0" />
				</g>
			</g>
		</g>
		<path
   style="fill:#231f20"
   d="m 53.941,84.27 c 4.859,8.252 9.698,9.528 9.698,9.528 l 1.466,4.755 H 63 61.35 L 60.435,96.502 H 58.42 l -0.733,-2.517 -1.996,0.839 -0.475,-2.797 h -1.833 l -0.641,-2.331 -1.374,0.653 -1.374,-2.145 -1.923,-1.025 0.916,-3.17 h -2.289 l 0.092,-3.357 -1.741,0.56 -0.641,-2.983 -2.931,-1.119 2.564,-2.611 -1.282,-0.466 1.373,-2.423 -1.007,-0.466 -0.184,-2.891 -2.93,-0.559 1.649,-2.611 -2.016,-3.17 2.382,-1.306 -1.282,-3.169 0.732,-2.984 -2.747,-2.238 3.846,-0.372 v -2.797 l 1.1,-2.424 -1.1,-2.051 2.016,-1.678 -2.016,-1.679 2.198,-2.238 v -1.305 l 2.016,-1.678 -0.916,-2.611 3.662,0.746 0.184,-4.475 2.748,0.932 0.915,-1.864 3.114,0.373 c 0,0 -0.732,-1.492 0.549,-1.492 1.282,0 4.397,1.306 4.397,1.306 l 1.648,-2.238 3.663,2.611 1.283,-2.611 2.381,2.797 2.234,-2.797 c 0,0 0,15.664 0,25.36 -2.895,-0.248 -4.433,-0.248 -10.782,-2.735 -2.197,1.492 -9.28,11.686 -9.28,12.68 0,0.994 -1.222,11.189 -1.222,11.189 l -1.274,-6.08 c 0,-0.004 1.27,12.806 3.848,17.185 z"
   id="path30"
   inkscape:connector-curvature="0" />
		<path
   style="fill:#231f20"
   d="m 90.629,84.27 c -4.669,8.252 -9.318,9.528 -9.318,9.528 l -1.408,4.755 h 2.022 1.585 l 0.88,-2.051 h 1.937 l 0.703,-2.517 1.919,0.839 0.457,-2.797 h 1.761 l 0.615,-2.331 1.32,0.653 1.32,-2.145 1.848,-1.025 -0.88,-3.17 h 2.199 l -0.088,-3.357 1.673,0.56 0.615,-2.983 2.816,-1.119 -2.465,-2.611 1.233,-0.466 -1.32,-2.423 0.968,-0.466 0.177,-2.891 2.814,-0.559 -1.584,-2.611 1.937,-3.17 -2.288,-1.306 1.231,-3.169 -0.703,-2.984 2.64,-2.238 -3.695,-0.372 v -2.797 l -1.057,-2.424 1.057,-2.051 -1.937,-1.678 1.937,-1.679 -2.112,-2.238 v -1.305 l -1.936,-1.678 0.881,-2.611 -3.52,0.746 -0.177,-4.475 -2.64,0.932 -0.88,-1.864 -2.992,0.373 c 0,0 0.704,-1.492 -0.527,-1.492 -1.232,0 -4.225,1.306 -4.225,1.306 l -1.584,-2.238 -3.52,2.611 -1.232,-2.611 -2.288,2.797 -2.146,-2.797 c 0,0 0,15.664 0,25.36 2.78,-0.248 4.259,-0.248 10.359,-2.735 2.112,1.492 8.917,11.686 8.917,12.68 0,0.994 1.174,11.189 1.174,11.189 l 1.225,-6.08 c 0,-0.004 -1.22,12.806 -3.698,17.185 z"
   id="path32"
   inkscape:connector-curvature="0" />
		<path
   style="fill:#f1c9a5"
   d="m 45.161,67.031 c -0.684,-4.957 2.046,-9.318 6.092,-9.74 4.053,-0.422 7.888,3.259 8.567,8.216 0.683,4.953 -2.053,9.315 -6.1,9.739 -4.049,0.419 -7.88,-3.258 -8.559,-8.215 z"
   id="path34"
   inkscape:connector-curvature="0" />
		<path
   style="fill:#e4b692"
   d="m 91.438,75.246 c -4.05,-0.424 -6.783,-4.787 -6.098,-9.739 0.677,-4.957 4.513,-8.638 8.563,-8.216 4.047,0.422 6.777,4.783 6.094,9.74 -0.679,4.957 -4.51,8.634 -8.559,8.215 z"
   id="path36"
   inkscape:connector-curvature="0" />
	</g>
</g>
<g
   id="g41"
   transform="translate(0,-17)">
</g>
<g
   id="g43"
   transform="translate(0,-17)">
</g>
<g
   id="g45"
   transform="translate(0,-17)">
</g>
<g
   id="g47"
   transform="translate(0,-17)">
</g>
<g
   id="g49"
   transform="translate(0,-17)">
</g>
<g
   id="g51"
   transform="translate(0,-17)">
</g>
<g
   id="g53"
   transform="translate(0,-17)">
</g>
<g
   id="g55"
   transform="translate(0,-17)">
</g>
<g
   id="g57"
   transform="translate(0,-17)">
</g>
<g
   id="g59"
   transform="translate(0,-17)">
</g>
<g
   id="g61"
   transform="translate(0,-17)">
</g>
<g
   id="g63"
   transform="translate(0,-17)">
</g>
<g
   id="g65"
   transform="translate(0,-17)">
</g>
<g
   id="g67"
   transform="translate(0,-17)">
</g>
<g
   id="g69"
   transform="translate(0,-17)">
</g>
</svg>