<?xml version="1.0" encoding="UTF-8" standalone="no"?>
<!-- Generator: Adobe Illustrator 19.0.0, SVG Export Plug-In . SVG Version: 6.00 Build 0)  -->

<svg
   xmlns:dc="http://purl.org/dc/elements/1.1/"
   xmlns:cc="http://creativecommons.org/ns#"
   xmlns:rdf="http://www.w3.org/1999/02/22-rdf-syntax-ns#"
   xmlns:svg="http://www.w3.org/2000/svg"
   xmlns="http://www.w3.org/2000/svg"
   xmlns:sodipodi="http://sodipodi.sourceforge.net/DTD/sodipodi-0.dtd"
   xmlns:inkscape="http://www.inkscape.org/namespaces/inkscape"
   version="1.1"
   id="Layer_1"
   x="0px"
   y="0px"
   viewBox="0 0 128 128"
   xml:space="preserve"
   sodipodi:docname="avatar8.svg"
   width="128"
   height="128"
   inkscape:version="0.92.4 (5da689c313, 2019-01-14)"><metadata
   id="metadata73"><rdf:RDF><cc:Work
       rdf:about=""><dc:format>image/svg+xml</dc:format><dc:type
         rdf:resource="http://purl.org/dc/dcmitype/StillImage" /><dc:title></dc:title></cc:Work></rdf:RDF></metadata><defs
   id="defs71" /><sodipodi:namedview
   pagecolor="#ffffff"
   bordercolor="#666666"
   borderopacity="1"
   objecttolerance="10"
   gridtolerance="10"
   guidetolerance="10"
   inkscape:pageopacity="0"
   inkscape:pageshadow="2"
   inkscape:window-width="1920"
   inkscape:window-height="1017"
   id="namedview69"
   showgrid="false"
   inkscape:zoom="0.70606047"
   inkscape:cx="167.1245"
   inkscape:cy="167.1245"
   inkscape:window-x="1912"
   inkscape:window-y="-8"
   inkscape:window-maximized="1"
   inkscape:current-layer="Layer_1" />
<g
   id="XMLID_4_"
   transform="matrix(0.28721103,0,0,0.28721103,16,16)">
	<g
   id="XMLID_81_">
		<g
   id="XMLID_1188_">
			<path
   id="XMLID_1189_"
   style="fill:#f3d8b6"
   d="m 250.313,238.697 c -18.667,-6.681 -51.458,-11.736 -51.458,-81.376 h -29.23 -5.002 -29.23 c 0,69.64 -32.791,74.695 -51.458,81.376 0,47.368 68.832,48.824 80.688,53.239 v 1.537 c 0,0 0.922,-0.188 2.501,-0.68 1.579,0.492 2.501,0.68 2.501,0.68 v -1.537 c 11.855,-4.415 80.688,-5.872 80.688,-53.239 z"
   inkscape:connector-curvature="0" />
		</g>
		<path
   id="XMLID_1190_"
   style="fill:#eec8a2"
   d="m 198.855,157.321 h -29.23 -2.516 v 135.477 c 0.005,-0.002 0.01,-0.003 0.016,-0.005 1.579,0.492 2.501,0.68 2.501,0.68 v -1.537 c 11.856,-4.414 80.688,-5.871 80.688,-53.238 -18.668,-6.682 -51.459,-11.737 -51.459,-81.377 z"
   inkscape:connector-curvature="0" />
	</g>
	<g
   id="XMLID_74_">
		<path
   id="XMLID_1193_"
   style="fill:#66a299"
   d="m 287.105,293.568 v 40.681 H 47.143 v -40.681 c 0,-30.431 17.377,-56.963 40.605,-70.913 6.043,-3.641 19.69,-7.43 26.844,-9.196 5.953,-1.488 53.438,-0.271 53.438,-0.271 0,0 48.674,-0.218 54.627,1.271 7.154,1.766 17.802,4.554 23.844,8.196 23.228,13.951 40.604,40.482 40.604,70.913 z"
   inkscape:connector-curvature="0" />
		<path
   id="XMLID_1196_"
   style="fill:#5a9291"
   d="m 246.501,222.655 c -6.042,-3.641 -16.69,-6.429 -23.844,-8.195 -5.953,-1.488 -54.627,-1.271 -54.627,-1.271 0,0 -0.327,-0.009 -0.921,-0.023 v 121.083 h 119.997 v -40.681 c -10e-4,-30.431 -17.377,-56.962 -40.605,-70.913 z"
   inkscape:connector-curvature="0" />
	</g>
	<g
   id="XMLID_70_">
		<path
   id="XMLID_1197_"
   style="fill:#f3dbc4"
   d="m 229.374,126.544 c -1.31,5.21 -2.84,9.5 -4.45,12.48 -0.08,0.15 -0.17,0.3 -0.25,0.46 -4.72,8.56 -12.21,18.46 -21.88,26.27 -9.85,7.95 -21.95,13.73 -35.67,13.73 -27.21,0 -48.04,-22.72 -57.55,-40 -0.08,-0.16 -0.17,-0.31 -0.25,-0.46 -1.61,-2.98 -3.14,-7.27 -4.45,-12.48 -6.38,-25.15 -7.97,-71.67 8.79,-94.41 19.81,-26.89 53.46,-13.84 53.46,-13.84 0,0 33.65,-13.05 53.46,13.84 16.76,22.74 15.169,69.26 8.79,94.41 z"
   inkscape:connector-curvature="0" />
		<path
   id="XMLID_1198_"
   style="fill:#edceae"
   d="m 229.374,126.544 c -1.31,5.21 -2.84,9.5 -4.45,12.48 -0.08,0.15 -0.17,0.3 -0.25,0.46 -4.72,8.56 -12.21,18.46 -21.88,26.27 -9.85,7.95 -21.95,13.73 -35.67,13.73 V 18.294 c 0,0 33.65,-13.05 53.46,13.84 16.76,22.74 15.169,69.26 8.79,94.41 z"
   inkscape:connector-curvature="0" />
	</g>
	<g
   id="XMLID_63_">
		<path
   id="XMLID_1201_"
   style="fill:#545465"
   d="m 224.578,27.976 c -2.159,0.08 -25.469,-13.121 -41.382,-16.355 91.081,18.513 -128.625,30.477 -26.02,1.516 -29.41,-9.014 -57.539,14.472 -56.495,36.488 1.759,37.07 -4.778,36.505 -0.295,49.454 4.483,12.949 8.466,23.407 8.466,23.407 0,0 0.996,3.565 2.988,-16.854 1.992,-20.419 -4.579,-42.372 11.137,-40.379 15.716,1.992 10.785,14.805 44.436,14.805 33.391,0 28.719,-12.813 44.436,-14.805 15.716,-1.992 9.145,19.96 11.137,40.379 1.992,20.419 2.988,16.854 2.988,16.854 0,0 8.92,-9.712 8.466,-23.407 -0.51,-15.455 6.371,-71.705 -9.862,-71.103 z"
   inkscape:connector-curvature="0" />
		<path
   id="XMLID_1204_"
   style="fill:#494857"
   d="m 219.578,27.976 c -2.16,0.019 -20.469,-13.121 -36.382,-16.355 -8.193,-1.665 -12.81,18.023 -16.016,18.37 v 50.063 c 0.08,0 0.153,0.003 0.234,0.003 33.391,0 28.719,-12.813 44.436,-14.805 15.716,-1.992 9.145,19.96 11.137,40.379 1.992,20.419 2.988,16.854 2.988,16.854 0,0 8.786,-9.708 8.466,-23.407 -0.343,-14.787 4.489,-71.271 -14.863,-71.102 z"
   inkscape:connector-curvature="0" />
	</g>
	<g
   id="XMLID_56_">
		<path
   id="XMLID_1207_"
   style="fill:#66a299"
   d="m 167.124,73.769 c 29.48,0 54.877,6.299 66.407,15.368 h 2.513 V 31.239 c 0,0 -8.186,-31.239 -68.92,-31.239 -59.469,0 -68.92,31.239 -68.92,31.239 v 57.898 h 2.513 c 11.53,-9.069 36.926,-15.368 66.407,-15.368 z"
   inkscape:connector-curvature="0" />
		<path
   id="XMLID_1210_"
   style="fill:#5a9291"
   d="m 167.18,0 v 73.769 c 29.456,0.008 54.827,6.305 66.35,15.368 h 2.513 V 31.239 c 0.001,0 -8.18,-31.232 -68.863,-31.239 z"
   inkscape:connector-curvature="0" />
	</g>
	<g
   id="XMLID_37_">
		<g
   id="XMLID_1211_">
			<path
   id="XMLID_55_"
   style="fill:#66a299"
   d="m 135.71,118.633 23.348,-9.887 c 5.156,-2.183 10.977,-2.183 16.133,0 l 23.348,9.887 c 7.65,3.239 12.619,10.741 12.619,19.048 v 9.886 c 0,8.307 -4.97,15.809 -12.619,19.048 l -23.348,9.887 c -5.156,2.184 -10.977,2.184 -16.133,0 l -23.348,-9.887 c -7.65,-3.24 -12.619,-10.741 -12.619,-19.048 v -9.886 c -10e-4,-8.307 4.968,-15.809 12.619,-19.048 z"
   inkscape:connector-curvature="0" />
			<g
   id="XMLID_1212_">
				
					<rect
   id="XMLID_54_"
   x="115.163"
   y="96.334"
   transform="matrix(0.8162,-0.5777,0.5777,0.8162,-45.4329,90.8963)"
   style="fill:#66a299"
   width="10"
   height="41.058998" />
			</g>
			<g
   id="XMLID_1213_">
				<path
   id="XMLID_1214_"
   style="fill:#66a299"
   d="m 136.964,140.444 -3.97,9.18 -23.42,-10.14 c -0.08,-0.16 -0.17,-0.31 -0.25,-0.46 -1.61,-2.98 -3.14,-7.27 -4.45,-12.48 z"
   inkscape:connector-curvature="0" />
			</g>
		</g>
		<g
   id="XMLID_1215_">
			<g
   id="XMLID_1219_">
				<g
   id="XMLID_1217_">
					
						<rect
   id="XMLID_1218_"
   x="209.093"
   y="96.324997"
   transform="matrix(-0.8162,-0.5777,0.5777,-0.8162,321.3326,335.9226)"
   style="fill:#5a9291"
   width="10"
   height="41.058998" />
				</g>
			</g>
			<g
   id="XMLID_1224_">
				<g
   id="XMLID_1222_">
					<path
   id="XMLID_1223_"
   style="fill:#5a9291"
   d="m 229.374,126.544 c -1.31,5.21 -2.84,9.5 -4.45,12.48 -0.08,0.15 -0.17,0.3 -0.25,0.46 l -23.42,10.14 -3.97,-9.18 z"
   inkscape:connector-curvature="0" />
				</g>
			</g>
			<path
   id="XMLID_1226_"
   style="fill:#5a9291"
   d="m 198.538,118.632 -23.348,-9.887 c -2.578,-1.092 -5.323,-1.638 -8.067,-1.638 v 71.033 c 2.744,0 5.489,-0.546 8.067,-1.638 l 23.348,-9.887 c 7.65,-3.24 12.619,-10.741 12.619,-19.048 v -9.887 c 10e-4,-8.306 -4.969,-15.808 -12.619,-19.048 z"
   inkscape:connector-curvature="0" />
		</g>
	</g>
	<polygon
   id="XMLID_34_"
   style="fill:#5a9291"
   points="95.404,241.457 95.404,334.249 108.404,334.249 108.404,254.457 187.525,254.457 187.673,241.457 " />
	<g
   id="XMLID_5_">
		
			<ellipse
   id="XMLID_33_"
   transform="matrix(0.3543,-0.9351,0.9351,0.3543,43.5355,286.5922)"
   style="fill:#edceae"
   cx="229.298"
   cy="111.771"
   rx="17.187"
   ry="10.048" />
		
			<ellipse
   id="XMLID_32_"
   transform="matrix(0.3543,0.9351,-0.9351,0.3543,172.2898,-25.9638)"
   style="fill:#f3dbc4"
   cx="104.946"
   cy="111.779"
   rx="17.187"
   ry="10.048" />
	</g>
</g>
<g
   id="g38"
   transform="translate(0,-206.24899)">
</g>
<g
   id="g40"
   transform="translate(0,-206.24899)">
</g>
<g
   id="g42"
   transform="translate(0,-206.24899)">
</g>
<g
   id="g44"
   transform="translate(0,-206.24899)">
</g>
<g
   id="g46"
   transform="translate(0,-206.24899)">
</g>
<g
   id="g48"
   transform="translate(0,-206.24899)">
</g>
<g
   id="g50"
   transform="translate(0,-206.24899)">
</g>
<g
   id="g52"
   transform="translate(0,-206.24899)">
</g>
<g
   id="g54"
   transform="translate(0,-206.24899)">
</g>
<g
   id="g56"
   transform="translate(0,-206.24899)">
</g>
<g
   id="g58"
   transform="translate(0,-206.24899)">
</g>
<g
   id="g60"
   transform="translate(0,-206.24899)">
</g>
<g
   id="g62"
   transform="translate(0,-206.24899)">
</g>
<g
   id="g64"
   transform="translate(0,-206.24899)">
</g>
<g
   id="g66"
   transform="translate(0,-206.24899)">
</g>
</svg>