<?xml version="1.0" encoding="UTF-8" standalone="no"?>
<!-- Generator: Adobe Illustrator 19.0.0, SVG Export Plug-In . SVG Version: 6.00 Build 0)  -->

<svg
   xmlns:dc="http://purl.org/dc/elements/1.1/"
   xmlns:cc="http://creativecommons.org/ns#"
   xmlns:rdf="http://www.w3.org/1999/02/22-rdf-syntax-ns#"
   xmlns:svg="http://www.w3.org/2000/svg"
   xmlns="http://www.w3.org/2000/svg"
   xmlns:sodipodi="http://sodipodi.sourceforge.net/DTD/sodipodi-0.dtd"
   xmlns:inkscape="http://www.inkscape.org/namespaces/inkscape"
   version="1.1"
   id="Layer_1"
   x="0px"
   y="0px"
   viewBox="0 0 128 128"
   xml:space="preserve"
   sodipodi:docname="avatar4.svg"
   width="128"
   height="128"
   inkscape:version="0.92.4 (5da689c313, 2019-01-14)"><metadata
   id="metadata53"><rdf:RDF><cc:Work
       rdf:about=""><dc:format>image/svg+xml</dc:format><dc:type
         rdf:resource="http://purl.org/dc/dcmitype/StillImage" /><dc:title></dc:title></cc:Work></rdf:RDF></metadata><defs
   id="defs51" /><sodipodi:namedview
   pagecolor="#ffffff"
   bordercolor="#666666"
   borderopacity="1"
   objecttolerance="10"
   gridtolerance="10"
   guidetolerance="10"
   inkscape:pageopacity="0"
   inkscape:pageshadow="2"
   inkscape:window-width="1920"
   inkscape:window-height="1017"
   id="namedview49"
   showgrid="false"
   inkscape:zoom="0.65756843"
   inkscape:cx="179.44901"
   inkscape:cy="179.44901"
   inkscape:window-x="1912"
   inkscape:window-y="-8"
   inkscape:window-maximized="1"
   inkscape:current-layer="Layer_1" />
<g
   id="XMLID_972_"
   transform="matrix(0.26748547,0,0,0.26748547,16,16)">
	<g
   id="XMLID_973_">
		<path
   id="XMLID_1002_"
   style="fill:#682234"
   d="M 290.089,141.269 C 290.089,59.796 247.343,0 179.449,0 111.932,0 69.293,59.135 68.82,139.914 c -2.475,-0.56 -5.046,-0.865 -7.689,-0.865 -19.179,0 -34.727,15.548 -34.727,34.727 0,15.758 10.499,29.056 24.88,33.302 0.335,18.89 15.742,34.102 34.711,34.102 5.798,0 11.259,-1.428 16.063,-3.941 4.993,13.055 17.63,22.329 32.439,22.329 19.179,0 34.727,-15.548 34.727,-34.727 0,-2.803 -0.341,-5.524 -0.968,-8.135 44.084,1.686 90.604,-6.62 110.677,-24.92 26.392,-24.058 11.156,-28.579 11.156,-50.517 z"
   inkscape:connector-curvature="0" />
		<path
   id="XMLID_1004_"
   style="fill:#581a2b"
   d="m 332.494,173.776 c 0,-19.179 -15.548,-34.727 -34.727,-34.727 -2.644,0 -5.215,0.305 -7.689,0.865 C 289.605,59.135 246.965,0 179.449,0 c -0.032,0 -0.063,0.001 -0.094,0.001 v 216.92 c 3.768,0.001 7.536,-0.071 11.286,-0.214 -0.627,2.611 -0.968,5.332 -0.968,8.135 0,19.179 15.548,34.727 34.727,34.727 14.81,0 27.447,-9.274 32.439,-22.329 4.805,2.512 10.266,3.941 16.063,3.941 18.97,0 34.376,-15.212 34.711,-34.102 14.382,-4.247 24.881,-17.545 24.881,-33.303 z"
   inkscape:connector-curvature="0" />
	</g>
	<g
   id="XMLID_1005_">
		<path
   id="XMLID_1006_"
   style="fill:#f3d8b6"
   d="m 207.778,180.756 h -26.884 -1.256 -0.379 -1.256 -26.884 c 0,74.552 -36.43,67.808 -36.43,67.808 0,47.368 51.162,62.392 63.313,66.806 v 1.537 c 0,0 0.533,-0.11 1.446,-0.359 0.912,0.249 1.446,0.359 1.446,0.359 v -1.537 c 12.151,-4.414 63.313,-19.439 63.313,-66.806 0.001,0 -36.429,6.744 -36.429,-67.808 z"
   inkscape:connector-curvature="0" />
		<path
   id="XMLID_1007_"
   style="fill:#eec8a2"
   d="m 207.778,180.756 h -26.884 -1.256 -0.189 v 135.792 c 0.912,0.249 1.446,0.359 1.446,0.359 v -1.537 c 12.151,-4.414 63.313,-19.439 63.313,-66.806 0,0 -36.43,6.744 -36.43,-67.808 z"
   inkscape:connector-curvature="0" />
	</g>
	<g
   id="XMLID_1008_">
		<path
   id="XMLID_1009_"
   style="fill:#f3d8b6"
   d="m 296.43,318.004 v 40.681 H 62.467 v -40.681 c 0,-30.431 14.377,-56.963 37.605,-70.913 6.043,-3.641 12.69,-6.43 19.844,-8.196 5.953,-1.488 12.254,-2.272 18.842,-2.272 l 40.691,24.002 40.691,-24.002 c 6.588,0 12.889,0.784 18.842,2.272 7.154,1.766 13.802,4.554 19.844,8.196 23.227,13.95 37.604,40.482 37.604,70.913 z"
   inkscape:connector-curvature="0" />
		<path
   id="XMLID_1010_"
   style="fill:#eec8a2"
   d="m 296.429,318.005 v 40.68 h -116.98 v -98.06 l 36,-21.23 4.69,-2.77 c 6.59,0 12.89,0.78 18.84,2.27 7.16,1.77 13.8,4.55 19.85,8.2 23.22,13.95 37.6,40.48 37.6,70.91 z"
   inkscape:connector-curvature="0" />
	</g>
	<g
   id="XMLID_1011_">
		<path
   id="XMLID_1012_"
   style="fill:#f3dbc4"
   d="m 180.354,120.925 h -64.988 c 0.84,22.166 4.35,42.212 8.428,49.74 9.042,16.694 29.221,38.957 55.657,38.957 26.431,0 46.607,-22.262 55.652,-38.957 4.077,-7.528 7.588,-27.574 8.429,-49.74 z"
   inkscape:connector-curvature="0" />
		<path
   id="XMLID_1013_"
   style="fill:#edceae"
   d="m 180.354,120.925 h -1 v 88.694 c 0.032,0 0.064,0.002 0.096,0.002 26.431,0 46.607,-22.263 55.652,-38.957 4.077,-7.528 7.588,-27.573 8.429,-49.74 h -63.177 z"
   inkscape:connector-curvature="0" />
	</g>
	<g
   id="XMLID_1014_">
		<path
   id="XMLID_1015_"
   style="fill:#aec7ea"
   d="m 224.933,267.897 h -2.955 c -7.109,15.907 -23.023,26.993 -41.529,26.993 -25.129,0 -45.5,-20.43 -45.5,-45.632 0,-4.463 0.65,-8.772 1.841,-12.849 -5.881,0.139 -11.524,0.899 -16.882,2.241 -7.16,1.77 -13.8,4.55 -19.85,8.2 -23.22,13.95 -37.6,40.48 -37.6,70.91 v 5.97 h 37.306 l -0.306,0.5 v 34.667 h 160 V 324.23 Z"
   inkscape:connector-curvature="0" />
		<path
   id="XMLID_1016_"
   style="fill:#96b3d4"
   d="m 296.439,317.761 c 0,-30.43 -14.38,-56.96 -37.6,-70.91 -6.05,-3.65 -12.69,-6.43 -19.85,-8.2 -4.74,-1.187 -9.706,-1.915 -14.86,-2.165 1.177,4.055 1.82,8.338 1.82,12.773 0,25.202 -20.371,45.632 -45.5,45.632 -0.332,0 -0.66,-0.018 -0.99,-0.025 v 64.032 h 80 v -34.667 l -0.306,-0.5 h 37.286 z"
   inkscape:connector-curvature="0" />
	</g>
</g>
<g
   id="g18"
   transform="translate(0,-230.89801)">
</g>
<g
   id="g20"
   transform="translate(0,-230.89801)">
</g>
<g
   id="g22"
   transform="translate(0,-230.89801)">
</g>
<g
   id="g24"
   transform="translate(0,-230.89801)">
</g>
<g
   id="g26"
   transform="translate(0,-230.89801)">
</g>
<g
   id="g28"
   transform="translate(0,-230.89801)">
</g>
<g
   id="g30"
   transform="translate(0,-230.89801)">
</g>
<g
   id="g32"
   transform="translate(0,-230.89801)">
</g>
<g
   id="g34"
   transform="translate(0,-230.89801)">
</g>
<g
   id="g36"
   transform="translate(0,-230.89801)">
</g>
<g
   id="g38"
   transform="translate(0,-230.89801)">
</g>
<g
   id="g40"
   transform="translate(0,-230.89801)">
</g>
<g
   id="g42"
   transform="translate(0,-230.89801)">
</g>
<g
   id="g44"
   transform="translate(0,-230.89801)">
</g>
<g
   id="g46"
   transform="translate(0,-230.89801)">
</g>
</svg>