<?xml version="1.0" encoding="UTF-8" standalone="no"?>
<!-- Generator: Adobe Illustrator 19.0.0, SVG Export Plug-In . SVG Version: 6.00 Build 0)  -->

<svg
   xmlns:dc="http://purl.org/dc/elements/1.1/"
   xmlns:cc="http://creativecommons.org/ns#"
   xmlns:rdf="http://www.w3.org/1999/02/22-rdf-syntax-ns#"
   xmlns:svg="http://www.w3.org/2000/svg"
   xmlns="http://www.w3.org/2000/svg"
   xmlns:sodipodi="http://sodipodi.sourceforge.net/DTD/sodipodi-0.dtd"
   xmlns:inkscape="http://www.inkscape.org/namespaces/inkscape"
   version="1.1"
   id="Layer_1"
   x="0px"
   y="0px"
   viewBox="0 0 128 128"
   xml:space="preserve"
   sodipodi:docname="bot.svg"
   width="128"
   height="128"
   inkscape:version="0.92.4 (5da689c313, 2019-01-14)"><metadata
   id="metadata73"><rdf:RDF><cc:Work
       rdf:about=""><dc:format>image/svg+xml</dc:format><dc:type
         rdf:resource="http://purl.org/dc/dcmitype/StillImage" /><dc:title></dc:title></cc:Work></rdf:RDF></metadata><defs
   id="defs71" /><sodipodi:namedview
   pagecolor="#ffffff"
   bordercolor="#666666"
   borderopacity="1"
   objecttolerance="10"
   gridtolerance="10"
   guidetolerance="10"
   inkscape:pageopacity="0"
   inkscape:pageshadow="2"
   inkscape:window-width="1920"
   inkscape:window-height="1017"
   id="namedview69"
   showgrid="false"
   inkscape:zoom="1.84375"
   inkscape:cx="100.50257"
   inkscape:cy="53.315606"
   inkscape:window-x="1912"
   inkscape:window-y="-8"
   inkscape:window-maximized="1"
   inkscape:current-layer="Layer_1" />
<polygon
   style="fill:#93c7ef"
   points="195.765,451.765 165.647,512 120.471,512 120.471,451.765 "
   id="polygon2"
   transform="matrix(0.1875,0,0,0.1875,16.000002,16)" />
<g
   id="g8"
   transform="matrix(0.1875,0,0,0.1875,16.000002,16)">
	<polygon
   style="fill:#5a8bb0"
   points="391.529,451.765 391.529,512 346.353,512 316.235,451.765 "
   id="polygon4" />
	<rect
   x="233.412"
   y="233.412"
   style="fill:#5a8bb0"
   width="45.175999"
   height="97.882004"
   id="rect6" />
</g>
<path
   style="fill:#93c7ef;stroke-width:0.1875"
   d="M 72.4705,24.4705 C 72.4705,19.792563 68.67794,16 64,16 c -4.67794,0 -8.4705,3.792563 -8.4705,8.4705 0,3.134625 1.70438,5.869875 4.23525,7.334625 v 13.841812 h 8.4705 V 31.805312 c 2.53106,-1.464937 4.23525,-4.2 4.23525,-7.334812 z"
   id="path10"
   inkscape:connector-curvature="0" />
<path
   style="fill:#5a8bb0;stroke-width:0.1875"
   d="m 64,16 v 29.647125 h 4.23525 V 31.805312 C 70.76631,30.340375 72.4705,27.605313 72.4705,24.470688 72.4705,19.792563 68.67794,16 64,16 Z"
   id="path12"
   inkscape:connector-curvature="0" />
<rect
   x="35.764751"
   y="47.058815"
   style="fill:#93c7ef;stroke-width:0.1875"
   width="31.058813"
   height="8.4705"
   id="rect14" />
<rect
   x="61.176434"
   y="47.058815"
   style="fill:#5a8bb0;stroke-width:0.1875"
   width="31.058813"
   height="8.4705"
   id="rect16" />
<rect
   x="41.411686"
   y="35.764748"
   style="fill:#cce9f9;stroke-width:0.1875"
   width="45.176437"
   height="31.058813"
   id="rect18" />
<rect
   x="63.999996"
   y="35.764748"
   style="fill:#93c7ef;stroke-width:0.1875"
   width="22.588312"
   height="31.058813"
   id="rect20" />
<rect
   x="47.058811"
   y="75.29406"
   style="fill:#cce9f9;stroke-width:0.1875"
   width="33.882374"
   height="36.705936"
   id="rect22" />
<rect
   x="63.999996"
   y="75.29406"
   style="fill:#93c7ef;stroke-width:0.1875"
   width="16.941187"
   height="36.705936"
   id="rect24" />
<circle
   style="fill:#3c5d76;stroke-width:0.1875"
   cx="54.676762"
   cy="48.470497"
   r="4.23525"
   id="circle26" />
<g
   id="g32"
   transform="matrix(0.1875,0,0,0.1875,16.000002,16)">
	<circle
   style="fill:#1e2e3b"
   cx="311.68799"
   cy="173.17599"
   r="22.587999"
   id="circle28" />
	<path
   style="fill:#1e2e3b"
   d="m 228.87,210.824 c 0,16.632 13.484,30.118 30.118,30.118 v 0 c 16.632,0 30.118,-13.485 30.118,-30.118 z"
   id="path30"
   inkscape:connector-curvature="0" />
</g>
<rect
   x="55.529499"
   y="83.764748"
   style="fill:#93c7ef;stroke-width:0.1875"
   width="16.941187"
   height="16.941187"
   id="rect34" />
<rect
   x="63.999996"
   y="83.764748"
   style="fill:#5a8bb0;stroke-width:0.1875"
   width="8.4705"
   height="16.941187"
   id="rect36" />
<g
   id="g38"
   transform="translate(0,-384)">
</g>
<g
   id="g40"
   transform="translate(0,-384)">
</g>
<g
   id="g42"
   transform="translate(0,-384)">
</g>
<g
   id="g44"
   transform="translate(0,-384)">
</g>
<g
   id="g46"
   transform="translate(0,-384)">
</g>
<g
   id="g48"
   transform="translate(0,-384)">
</g>
<g
   id="g50"
   transform="translate(0,-384)">
</g>
<g
   id="g52"
   transform="translate(0,-384)">
</g>
<g
   id="g54"
   transform="translate(0,-384)">
</g>
<g
   id="g56"
   transform="translate(0,-384)">
</g>
<g
   id="g58"
   transform="translate(0,-384)">
</g>
<g
   id="g60"
   transform="translate(0,-384)">
</g>
<g
   id="g62"
   transform="translate(0,-384)">
</g>
<g
   id="g64"
   transform="translate(0,-384)">
</g>
<g
   id="g66"
   transform="translate(0,-384)">
</g>
</svg>