<?xml version="1.0" encoding="UTF-8" standalone="no"?>
<!-- Generator: Adobe Illustrator 18.0.0, SVG Export Plug-In . SVG Version: 6.00 Build 0)  -->

<svg
   xmlns:dc="http://purl.org/dc/elements/1.1/"
   xmlns:cc="http://creativecommons.org/ns#"
   xmlns:rdf="http://www.w3.org/1999/02/22-rdf-syntax-ns#"
   xmlns:svg="http://www.w3.org/2000/svg"
   xmlns="http://www.w3.org/2000/svg"
   xmlns:sodipodi="http://sodipodi.sourceforge.net/DTD/sodipodi-0.dtd"
   xmlns:inkscape="http://www.inkscape.org/namespaces/inkscape"
   version="1.1"
   id="Capa_1"
   x="0px"
   y="0px"
   viewBox="0 0 128 128"
   xml:space="preserve"
   sodipodi:docname="chat.svg"
   width="128"
   height="128"
   inkscape:version="0.92.4 (5da689c313, 2019-01-14)"><metadata
   id="metadata47"><rdf:RDF><cc:Work
       rdf:about=""><dc:format>image/svg+xml</dc:format><dc:type
         rdf:resource="http://purl.org/dc/dcmitype/StillImage" /><dc:title /></cc:Work></rdf:RDF></metadata><defs
   id="defs45" /><sodipodi:namedview
   pagecolor="#ffffff"
   bordercolor="#666666"
   borderopacity="1"
   objecttolerance="10"
   gridtolerance="10"
   guidetolerance="10"
   inkscape:pageopacity="0"
   inkscape:pageshadow="2"
   inkscape:window-width="1920"
   inkscape:window-height="1017"
   id="namedview43"
   showgrid="false"
   inkscape:zoom="4.0689655"
   inkscape:cx="-25.436441"
   inkscape:cy="29"
   inkscape:window-x="1912"
   inkscape:window-y="-8"
   inkscape:window-maximized="1"
   inkscape:current-layer="Capa_1" />
<g
   id="g10"
   transform="matrix(1.6551724,0,0,1.6551724,16,16)">
	<path
   style="fill:#26b99a"
   d="M 53,3.293 H 5 c -2.722,0 -5,2.278 -5,5 v 33 c 0,2.722 2.278,5 5,5 h 27.681 l -4.439,-5.161 c -0.36,-0.418 -0.313,-1.05 0.106,-1.41 0.419,-0.36 1.051,-0.312 1.411,0.106 l 4.998,5.811 8.243,9.068 v -8.414 h 2 6 2 c 2.722,0 5,-2.278 5,-5 v -33 c 0,-2.722 -2.278,-5 -5,-5 z"
   id="path2"
   inkscape:connector-curvature="0" />
	<path
   style="fill:#ffffff"
   d="M 26,18.293 H 11 c -0.553,0 -1,-0.448 -1,-1 0,-0.552 0.447,-1 1,-1 h 15 c 0.553,0 1,0.448 1,1 0,0.552 -0.447,1 -1,1 z"
   id="path4"
   inkscape:connector-curvature="0" />
	<path
   style="fill:#ffffff"
   d="M 45,26.293 H 11 c -0.553,0 -1,-0.448 -1,-1 0,-0.552 0.447,-1 1,-1 h 34 c 0.553,0 1,0.448 1,1 0,0.552 -0.447,1 -1,1 z"
   id="path6"
   inkscape:connector-curvature="0" />
	<path
   style="fill:#ffffff"
   d="M 45,34.293 H 11 c -0.553,0 -1,-0.448 -1,-1 0,-0.552 0.447,-1 1,-1 h 34 c 0.553,0 1,0.448 1,1 0,0.552 -0.447,1 -1,1 z"
   id="path8"
   inkscape:connector-curvature="0" />
</g>
<g
   id="g12"
   transform="translate(0,70)">
</g>
<g
   id="g14"
   transform="translate(0,70)">
</g>
<g
   id="g16"
   transform="translate(0,70)">
</g>
<g
   id="g18"
   transform="translate(0,70)">
</g>
<g
   id="g20"
   transform="translate(0,70)">
</g>
<g
   id="g22"
   transform="translate(0,70)">
</g>
<g
   id="g24"
   transform="translate(0,70)">
</g>
<g
   id="g26"
   transform="translate(0,70)">
</g>
<g
   id="g28"
   transform="translate(0,70)">
</g>
<g
   id="g30"
   transform="translate(0,70)">
</g>
<g
   id="g32"
   transform="translate(0,70)">
</g>
<g
   id="g34"
   transform="translate(0,70)">
</g>
<g
   id="g36"
   transform="translate(0,70)">
</g>
<g
   id="g38"
   transform="translate(0,70)">
</g>
<g
   id="g40"
   transform="translate(0,70)">
</g>
</svg>